<svg width="441" height="432" viewBox="0 0 441 432" fill="none" xmlns="http://www.w3.org/2000/svg">
<g clip-path="url(#clip0_316:373)">
<path d="M242.554 418.765C325.839 418.765 393.355 415.446 393.355 411.352C393.355 407.258 325.839 403.938 242.554 403.938C159.268 403.938 91.752 407.258 91.752 411.352C91.752 415.446 159.268 418.765 242.554 418.765Z" stroke="black" stroke-miterlimit="10"/>
<path d="M242.554 386.801C325.839 386.801 393.355 377.542 393.355 366.122C393.355 354.701 325.839 345.442 242.554 345.442C159.268 345.442 91.752 354.701 91.752 366.122C91.752 377.542 159.268 386.801 242.554 386.801Z" stroke="black" stroke-miterlimit="10"/>
<path d="M242.554 328.305C325.839 328.305 393.355 307.992 393.355 282.935C393.355 257.877 325.839 237.564 242.554 237.564C159.268 237.564 91.752 257.877 91.752 282.935C91.752 307.992 159.268 328.305 242.554 328.305Z" stroke="black" stroke-miterlimit="10"/>
<path d="M242.554 220.427C325.839 220.427 393.355 175.618 393.355 120.345C393.355 65.0709 325.839 20.2627 242.554 20.2627C159.268 20.2627 91.752 65.0709 91.752 120.345C91.752 175.618 159.268 220.427 242.554 220.427Z" stroke="black" stroke-miterlimit="10"/>
<path d="M393.355 431.142H91.752" stroke="black" stroke-miterlimit="10"/>
</g>
<g clip-path="url(#clip1_316:373)">
<path d="M280.157 134.727L184.035 185.158L136.035 210.383C120.011 218.799 103.997 227.204 88.0345 235.803C80.0686 240.113 72.1434 244.484 64.3 249.079C56.4566 253.675 48.7052 258.271 41.1783 263.377C33.5837 268.372 26.4108 273.981 19.7315 280.147C16.3962 283.267 13.3221 286.655 10.54 290.278C7.75796 293.915 5.45802 297.897 3.69748 302.125C1.98279 306.361 0.948743 310.842 0.633651 315.401C0.465011 317.69 0.5369 319.99 0.848126 322.264C1.18181 324.545 1.82073 326.771 2.7477 328.882C4.70218 333.062 7.74228 336.642 11.5511 339.248C15.3117 341.813 19.4454 343.784 23.8064 345.09C32.5077 347.765 41.6175 348.674 50.6558 348.838C59.712 348.929 68.7595 348.246 77.6992 346.795C68.7501 348.137 59.7027 348.711 50.6558 348.511C41.6379 348.266 32.569 347.265 23.9698 344.528C19.6685 343.205 15.5994 341.22 11.9086 338.645C8.22882 336.083 5.30767 332.576 3.45238 328.494C2.57483 326.449 1.97709 324.295 1.67536 322.09C1.3911 319.879 1.34659 317.643 1.54259 315.422C1.89712 310.958 2.96247 306.579 4.69834 302.451C8.16047 294.169 14.0737 287.132 20.62 281.004C27.311 274.963 34.4837 269.478 42.0668 264.603C49.6039 259.639 57.386 255.033 65.2294 250.591C73.0728 246.148 81.049 241.859 89.0456 237.631C105.039 229.195 121.144 220.953 137.24 212.701L185.536 187.936L282.128 138.414L280.157 134.727Z" fill="#EB6141"/>
<path d="M439.751 53.6373C439.751 53.6373 399.595 50.2365 298.468 124.422L299.315 126.076L300.173 127.731C419.244 88.3301 439.751 53.6373 439.751 53.6373Z" fill="url(#paint0_linear_316:373)"/>
<path d="M258.526 126.812C281.148 117.263 338.789 92.2113 335.663 86.1449C332.538 80.0785 278.707 112.524 257.812 125.423L258.526 126.812Z" fill="url(#paint1_linear_316:373)"/>
<path d="M275.785 160.279C298.406 150.73 356.047 125.679 352.922 119.612C349.797 113.546 295.996 145.992 275.07 158.89L275.785 160.279Z" fill="url(#paint2_linear_316:373)"/>
<path d="M259.025 126.13C256.659 121.807 248.974 127.582 244.419 131.604L247.977 130.92L242.801 133.139C241.68 134.191 241.021 134.808 241.021 134.808C241.021 134.808 262.494 132.422 259.025 126.13Z" fill="black"/>
<path d="M277.437 158.798C275.202 154.511 267.998 160.239 263.728 164.228L267.064 163.533L262.094 165.751C261.043 166.794 260.426 167.49 260.426 167.49C260.426 167.49 280.673 165.04 277.437 158.798Z" fill="black"/>
<path d="M269.617 141.957C273.593 140.817 277.496 139.438 281.303 137.829C279.487 139.052 277.573 140.128 275.58 141.044C286.599 139.115 308.553 134.004 303.633 124.579C299.174 116.001 284.84 127.439 276.178 135.426L282.738 134.055L273.017 138.472C270.933 140.536 269.617 141.957 269.617 141.957Z" fill="black"/>
<g clip-path="url(#clip2_316:373)">
<path d="M328.835 302.345V302.804H306.427C300.927 303.033 295.713 305.321 291.821 309.214C287.928 313.106 285.64 318.32 285.411 323.82V346.228H284.557V323.82C284.32 318.322 282.03 313.113 278.139 309.222C274.248 305.33 269.038 303.04 263.54 302.804H241.021V301.887H263.43C268.93 301.657 274.144 299.37 278.036 295.477C281.929 291.584 284.217 286.37 284.446 280.87V258.462H285.363V280.807C285.596 286.306 287.885 291.517 291.777 295.409C295.669 299.302 300.881 301.59 306.38 301.823H328.804L328.835 302.345Z" fill="#293EF4"/>
</g>
<g clip-path="url(#clip3_316:373)">
<path d="M140.927 302.328V302.605H127.378C124.052 302.743 120.9 304.127 118.546 306.481C116.192 308.834 114.809 311.987 114.67 315.312V328.862H114.154V315.312C114.011 311.988 112.626 308.838 110.273 306.485C107.92 304.133 104.771 302.748 101.446 302.605H87.8301V302.05H101.379C104.705 301.912 107.857 300.528 110.211 298.175C112.565 295.821 113.948 292.668 114.087 289.343V275.793H114.641V289.304C114.782 292.629 116.166 295.781 118.52 298.134C120.873 300.487 124.024 301.871 127.349 302.012H140.908L140.927 302.328Z" fill="black"/>
</g>
</g>
<g clip-path="url(#clip4_316:373)">
<path d="M227.712 90.9917V91.9409H181.332C169.947 92.4154 159.157 97.1506 151.099 105.208C143.042 113.265 138.307 124.056 137.833 135.44V181.82H136.065V135.44C135.576 124.061 130.836 113.278 122.782 105.224C114.728 97.1703 103.945 92.4303 92.5658 91.9409H45.957V90.0425H92.3367C103.721 89.5681 114.512 84.8328 122.569 76.7756C130.626 68.7185 135.361 57.9278 135.836 46.5432V0.163574H137.734V46.4123C138.216 57.7944 142.954 68.5808 151.01 76.6364C159.065 84.692 169.852 89.4297 181.234 89.9116H227.646L227.712 90.9917Z" fill="url(#paint3_linear_316:373)"/>
</g>
<defs>
<linearGradient id="paint0_linear_316:373" x1="369.109" y1="53.6133" x2="338.042" y2="127.659" gradientUnits="userSpaceOnUse">
<stop stop-color="#F25929"/>
<stop offset="1" stop-color="#293EF4"/>
</linearGradient>
<linearGradient id="paint1_linear_316:373" x1="296.799" y1="85.397" x2="296.799" y2="126.812" gradientUnits="userSpaceOnUse">
<stop stop-color="#F25929"/>
<stop offset="1" stop-color="#293EF4"/>
</linearGradient>
<linearGradient id="paint2_linear_316:373" x1="314.057" y1="118.864" x2="314.057" y2="160.279" gradientUnits="userSpaceOnUse">
<stop stop-color="#F25929"/>
<stop offset="1" stop-color="#293EF4"/>
</linearGradient>
<linearGradient id="paint3_linear_316:373" x1="136.834" y1="0.163574" x2="136.834" y2="181.82" gradientUnits="userSpaceOnUse">
<stop stop-color="#293EF4"/>
<stop offset="1" stop-color="#EB6141"/>
</linearGradient>
<clipPath id="clip0_316:373">
<rect width="303.319" height="412.596" fill="white" transform="translate(90.8936 19.4043)"/>
</clipPath>
<clipPath id="clip1_316:373">
<rect width="440.599" height="296.293" fill="white" transform="translate(0 53.1064)"/>
</clipPath>
<clipPath id="clip2_316:373">
<rect width="87.8298" height="87.8298" fill="white" transform="translate(241.021 258.383)"/>
</clipPath>
<clipPath id="clip3_316:373">
<rect width="53.1064" height="53.1064" fill="white" transform="translate(87.8301 275.745)"/>
</clipPath>
<clipPath id="clip4_316:373">
<rect width="181.787" height="181.787" fill="white" transform="translate(45.957)"/>
</clipPath>
</defs>
</svg>
