<svg width="368" height="549" viewBox="0 0 368 549" fill="none" xmlns="http://www.w3.org/2000/svg">
<path d="M184.499 518.274C214.167 518.274 238.218 509.526 238.218 498.736C238.218 487.945 214.167 479.198 184.499 479.198C154.832 479.198 130.781 487.945 130.781 498.736C130.781 509.526 154.832 518.274 184.499 518.274Z" stroke="black" stroke-miterlimit="10"/>
<path d="M184.5 484.629C226.025 484.629 259.687 472.386 259.687 457.284C259.687 442.181 226.025 429.939 184.5 429.939C142.975 429.939 109.312 442.181 109.312 457.284C109.312 472.386 142.975 484.629 184.5 484.629Z" stroke="black" stroke-miterlimit="10"/>
<path d="M184.5 444.051C237.885 444.051 281.162 428.311 281.162 408.893C281.162 389.476 237.885 373.736 184.5 373.736C131.115 373.736 87.8379 389.476 87.8379 408.893C87.8379 428.311 131.115 444.051 184.5 444.051Z" stroke="black" stroke-miterlimit="10"/>
<path d="M184.5 396.711C249.746 396.711 302.637 377.475 302.637 353.746C302.637 330.017 249.746 310.781 184.5 310.781C119.255 310.781 66.3633 330.017 66.3633 353.746C66.3633 377.475 119.255 396.711 184.5 396.711Z" stroke="black" stroke-miterlimit="10"/>
<path d="M184.501 335.501C261.606 335.501 324.113 312.767 324.113 284.723C324.113 256.679 261.606 233.945 184.501 233.945C107.395 233.945 44.8887 256.679 44.8887 284.723C44.8887 312.767 107.395 335.501 184.501 335.501Z" stroke="black" stroke-miterlimit="10"/>
<path d="M184.499 266.969C273.465 266.969 345.586 240.74 345.586 208.384C345.586 176.029 273.465 149.799 184.499 149.799C95.5331 149.799 23.4121 176.029 23.4121 208.384C23.4121 240.74 95.5331 266.969 184.499 266.969Z" stroke="black" stroke-miterlimit="10"/>
<path d="M184.499 190.19C285.325 190.19 367.061 160.463 367.061 123.792C367.061 87.1214 285.325 57.394 184.499 57.394C83.6731 57.394 1.9375 87.1214 1.9375 123.792C1.9375 160.463 83.6731 190.19 184.499 190.19Z" stroke="black" stroke-miterlimit="10"/>
<path d="M185.354 105.646C185.158 105.451 184.842 105.451 184.646 105.646L181.464 108.828C181.269 109.024 181.269 109.34 181.464 109.536C181.66 109.731 181.976 109.731 182.172 109.536L185 106.707L187.828 109.536C188.024 109.731 188.34 109.731 188.536 109.536C188.731 109.34 188.731 109.024 188.536 108.828L185.354 105.646ZM185.5 549L185.5 106L184.5 106L184.5 549L185.5 549Z" fill="black"/>
<g clip-path="url(#clip0_228:910)">
<path d="M144.635 236C144.635 228.016 147.002 220.211 151.438 213.573C155.874 206.935 162.179 201.761 169.556 198.706C176.932 195.652 185.049 194.853 192.88 196.412C200.71 197.97 207.902 201.816 213.547 207.462C219.192 213.109 223.035 220.303 224.591 228.134C226.147 235.965 225.346 244.081 222.288 251.457C219.231 258.832 214.055 265.135 207.416 269.569C200.776 274.003 192.97 276.368 184.986 276.365C174.286 276.351 164.029 272.093 156.465 264.526C148.9 256.959 144.646 246.7 144.635 236ZM223.98 236C223.98 228.291 221.694 220.755 217.412 214.345C213.129 207.935 207.042 202.939 199.92 199.988C192.798 197.037 184.961 196.265 177.4 197.768C169.839 199.271 162.893 202.982 157.441 208.432C151.989 213.882 148.276 220.826 146.77 228.387C145.264 235.948 146.034 243.785 148.983 250.908C151.931 258.031 156.925 264.12 163.334 268.405C169.742 272.689 177.277 274.978 184.986 274.981C195.323 274.972 205.234 270.862 212.544 263.554C219.855 256.246 223.968 246.337 223.98 236Z" fill="url(#paint0_radial_228:910)"/>
<path d="M182.155 254.177L184.985 347.993L187.829 254.177C188.017 250.193 189.737 246.437 192.628 243.69C192.651 243.664 192.676 243.639 192.703 243.616C195.449 240.733 199.199 239.02 203.176 238.83L296.979 236L203.155 233.149C199.184 232.97 195.433 231.268 192.682 228.398L192.608 228.317C189.726 225.573 188.012 221.825 187.823 217.85L184.985 124L182.141 217.823C181.952 221.798 180.238 225.546 177.356 228.289L177.282 228.371C174.531 231.241 170.78 232.942 166.809 233.122L72.9922 236L166.815 238.844C170.792 239.033 174.542 240.747 177.288 243.629L177.363 243.704C180.249 246.448 181.965 250.199 182.155 254.177Z" fill="url(#paint1_radial_228:910)"/>
<circle cx="150" cy="334" r="5" fill="black"/>
<circle cx="128" cy="186" r="4" fill="black"/>
<circle cx="237" cy="265" r="6" fill="black"/>
</g>
<circle cx="337" cy="227" r="4" fill="black"/>
<path d="M361.5 24C361.5 23.7239 361.276 23.5 361 23.5L356.5 23.5C356.224 23.5 356 23.7239 356 24C356 24.2762 356.224 24.5 356.5 24.5L360.5 24.5L360.5 28.5C360.5 28.7762 360.724 29 361 29C361.276 29 361.5 28.7761 361.5 28.5L361.5 24ZM1.35355 384.354L361.354 24.3536L360.646 23.6465L0.646447 383.646L1.35355 384.354Z" fill="black"/>
<g clip-path="url(#clip1_228:910)">
<path d="M54.8136 23.5069C3.65512 63.9792 41.1012 143.04 98.9796 129.601C152.613 117.145 148.489 42.9572 99.9228 37.8144C67.1125 34.3561 45.463 70.7418 65.7372 95.1839C71.0027 101.55 55.0889 91.5689 54.2248 73.1791C52.0248 25.7508 126.445 12.9797 143.263 66.4984C161.69 125.126 80.551 168.664 36.9752 115.97C15.7182 90.2698 16.9354 54.9855 36.4245 28.5792C-9.90052 90.9405 57.3228 165.049 116.465 132.867C170.138 103.671 147.702 25.0038 92.6141 28.815C41.0617 32.3523 35.5208 102.257 80.0003 111.883C98.3893 115.853 115.561 105.48 120.983 87.56C123.536 92.748 113.871 105.793 109.352 109.408C72.539 138.718 19.3726 85.2766 53.7588 41.2641C89.6728 -4.6702 167.59 31.8341 154.82 95.2164C142.757 155.033 62.7422 170.294 24.9206 116.778C69.4989 180.334 162.636 144.849 156.628 76.3549C150.891 10.6921 63.0317 -0.66265 43.4635 55.9218C24.9177 109.441 93.8369 144.569 121.932 103.154C143.74 71.0496 109.477 32.5486 78.3948 50.7732C73.7195 53.524 83.4245 41.9716 99.293 42.7977C144.284 45.1545 149.28 117.103 96.6215 127.909C40.3147 139.501 5.69837 61.5405 56.8187 22.9901C110.403 -17.3961 188.149 39.7419 161.468 110.189C188.831 38.6235 108.531 -19.0214 54.8136 23.5069ZM91.8586 52.1077C106.987 52.1077 119.252 64.3718 119.252 79.5025C119.252 94.6332 106.989 106.897 91.8586 106.897C76.7285 106.897 64.4649 94.6332 64.4649 79.5025C64.4649 64.3718 76.7299 52.1077 91.8586 52.1077Z" fill="url(#paint2_linear_228:910)"/>
</g>
<g clip-path="url(#clip2_228:910)">
<path d="M249.086 383.877C212.644 411.433 239.318 465.262 280.547 456.112C318.751 447.631 315.813 397.12 281.218 393.619C257.847 391.264 242.425 416.037 256.867 432.679C260.618 437.013 249.282 430.218 248.666 417.697C247.099 385.405 300.111 376.71 312.091 413.148C325.217 453.065 267.419 482.708 236.379 446.831C221.237 429.333 222.104 405.31 235.987 387.331C202.988 429.79 250.873 480.247 293.002 458.336C331.235 438.457 315.253 384.897 276.012 387.491C239.29 389.9 235.343 437.495 267.027 444.049C280.126 446.751 292.358 439.689 296.221 427.488C298.039 431.02 291.154 439.902 287.935 442.363C261.712 462.319 223.84 425.933 248.334 395.967C273.917 364.693 329.419 389.547 320.324 432.701C311.731 473.427 254.734 483.817 227.792 447.381C259.547 490.653 325.891 466.493 321.611 419.859C317.524 375.152 254.94 367.422 241.001 405.947C227.79 442.385 276.883 466.303 296.896 438.105C312.431 416.247 288.024 390.034 265.883 402.442C262.553 404.315 269.466 396.449 280.77 397.012C312.818 398.616 316.377 447.602 278.867 454.96C238.758 462.852 214.1 409.773 250.514 383.526C288.684 356.029 344.064 394.931 325.059 442.895C344.55 394.17 287.35 354.922 249.086 383.877ZM275.474 403.35C286.251 403.35 294.987 411.7 294.987 422.002C294.987 432.304 286.252 440.654 275.474 440.654C264.696 440.654 255.961 432.304 255.961 422.002C255.961 411.7 264.697 403.35 275.474 403.35Z" fill="url(#paint3_linear_228:910)"/>
</g>
<defs>
<radialGradient id="paint0_radial_228:910" cx="0" cy="0" r="1" gradientUnits="userSpaceOnUse" gradientTransform="translate(185 236) scale(40.3651)">
<stop offset="0.16"/>
<stop offset="0.82" stop-color="#FF4518"/>
</radialGradient>
<radialGradient id="paint1_radial_228:910" cx="0" cy="0" r="1" gradientUnits="userSpaceOnUse" gradientTransform="translate(107591 57392.3) scale(36960 36961.1)">
<stop offset="0.16"/>
<stop offset="0.82" stop-color="#FF4518"/>
</radialGradient>
<linearGradient id="paint2_linear_228:910" x1="93.9983" y1="9.00085" x2="93.9983" y2="149.998" gradientUnits="userSpaceOnUse">
<stop stop-color="#293EF4"/>
<stop offset="1" stop-color="#293EF4" stop-opacity="0"/>
</linearGradient>
<linearGradient id="paint3_linear_228:910" x1="276.998" y1="374.001" x2="276.998" y2="469.999" gradientUnits="userSpaceOnUse">
<stop stop-color="#293EF4"/>
<stop offset="1" stop-color="#293EF4" stop-opacity="0"/>
</linearGradient>
<clipPath id="clip0_228:910">
<rect width="224" height="224" fill="white" transform="translate(73 124)"/>
</clipPath>
<clipPath id="clip1_228:910">
<rect width="146" height="141" fill="white" transform="translate(21 9)"/>
</clipPath>
<clipPath id="clip2_228:910">
<rect width="104" height="96" fill="white" transform="translate(225 374)"/>
</clipPath>
</defs>
</svg>
