<svg width="440" height="532" viewBox="0 0 440 532" fill="none" xmlns="http://www.w3.org/2000/svg">
<g clip-path="url(#clip0_155:24177)">
<path d="M52.0934 240.841C60.4347 240.841 67.1967 233.961 67.1967 225.474C67.1967 216.987 60.4347 210.107 52.0934 210.107C43.7522 210.107 36.9902 216.987 36.9902 225.474C36.9902 233.961 43.7522 240.841 52.0934 240.841Z" fill="black"/>
<path d="M64.9536 217.4C65.2457 217.899 65.4341 218.248 65.6037 218.587C79.3031 219.67 88.9793 222.355 88.9793 225.465C88.9793 229.544 72.4628 232.861 52.0928 232.861C31.7228 232.861 15.244 229.544 15.244 225.465C15.244 222.337 24.8919 219.67 38.6196 218.587C38.6196 218.587 38.9682 217.908 39.2791 217.4C16.7703 218.342 0.0371094 221.583 0.0371094 225.465C0.0371094 230.063 23.3562 233.794 52.1305 233.794C80.9048 233.794 104.233 230.025 104.233 225.465C104.196 221.583 87.4812 218.313 64.9536 217.4Z" fill="#EB6141"/>
</g>
<path d="M378.257 236.017C378.257 366.21 295.485 471.534 193.618 471.534C91.7506 471.534 8.97852 366.21 8.97852 236.017C8.97852 105.825 91.7506 0.5 193.618 0.5C295.485 0.5 378.257 105.825 378.257 236.017Z" stroke="black"/>
<path d="M334.918 189.85C334.918 289.341 271.551 369.778 193.619 369.778C115.687 369.778 52.3203 289.341 52.3203 189.85C52.3203 90.3596 115.687 9.92188 193.619 9.92188C271.551 9.92188 334.918 90.3596 334.918 189.85Z" stroke="black"/>
<path d="M294.404 146.51C294.404 217.38 249.176 274.618 193.619 274.618C138.062 274.618 92.834 217.38 92.834 146.51C92.834 75.6396 138.062 18.4015 193.619 18.4015C249.176 18.4015 294.404 75.6396 294.404 146.51Z" stroke="black"/>
<path d="M264.254 107.409C264.254 150.894 232.581 186.052 193.619 186.052C154.658 186.052 122.984 150.894 122.984 107.409C122.984 63.9239 154.658 28.7655 193.619 28.7655C232.581 28.7655 264.254 63.9239 264.254 107.409Z" stroke="black"/>
<circle cx="193.619" cy="87.152" r="49.4647" fill="url(#paint0_linear_155:24177)"/>
<circle cx="128.609" cy="138.972" r="6.1242" fill="black"/>
<circle cx="192.206" cy="273.233" r="8.47966" fill="black"/>
<circle cx="29.2062" cy="345.782" r="8.47966" fill="#293EF4"/>
<g clip-path="url(#clip1_155:24177)">
<path d="M271.35 492.762L317.763 336.726L332.236 381.398L271.35 492.762ZM317.827 341.323L276.326 480.825L330.767 381.263L317.827 341.323Z" fill="black"/>
<path d="M398.544 492.762L337.652 381.398L352.126 336.726L398.544 492.762ZM339.13 381.257L393.568 480.825L352.07 341.329L339.13 381.257Z" fill="black"/>
<path d="M291.516 455.145H291.434C291.256 455.121 291.095 455.028 290.985 454.886C290.875 454.744 290.826 454.564 290.846 454.386L296.263 408.921L331.091 380.795C331.232 380.681 331.412 380.628 331.592 380.648C331.772 380.668 331.936 380.758 332.05 380.899C332.163 381.041 332.216 381.221 332.196 381.402C332.177 381.582 332.086 381.747 331.945 381.861L297.556 409.634L292.204 454.545C292.184 454.713 292.103 454.867 291.976 454.978C291.848 455.089 291.685 455.149 291.516 455.145Z" fill="black"/>
<path d="M378.384 455.145C378.22 455.146 378.06 455.086 377.936 454.978C377.812 454.87 377.731 454.72 377.709 454.557L372.359 409.646L337.97 381.873C337.9 381.816 337.842 381.747 337.799 381.668C337.756 381.589 337.729 381.503 337.719 381.414C337.709 381.324 337.717 381.234 337.742 381.148C337.767 381.062 337.809 380.981 337.865 380.911C337.921 380.841 337.991 380.783 338.069 380.74C338.148 380.697 338.234 380.669 338.323 380.66C338.412 380.65 338.502 380.658 338.588 380.683C338.674 380.709 338.755 380.75 338.824 380.807L373.646 408.93L379.063 454.395C379.084 454.573 379.035 454.753 378.925 454.896C378.815 455.038 378.653 455.131 378.475 455.154L378.384 455.145Z" fill="black"/>
<path d="M334.946 77.2592C291.697 339.326 334.946 424.934 334.946 424.934C334.946 424.934 378.196 339.323 334.946 77.2592Z" fill="url(#paint1_linear_155:24177)"/>
</g>
<path d="M439.5 482.869C439.5 486.695 436.562 490.469 430.923 493.998C425.31 497.511 417.155 500.693 407.032 503.372C386.795 508.729 358.81 512.048 327.88 512.048C296.949 512.048 268.964 508.729 248.727 503.372C238.605 500.693 230.449 497.511 224.836 493.998C219.197 490.469 216.26 486.695 216.26 482.869C216.26 479.044 219.197 475.27 224.836 471.741C230.449 468.228 238.605 465.046 248.727 462.367C268.964 457.01 296.949 453.691 327.88 453.691C358.81 453.691 386.795 457.01 407.032 462.367C417.155 465.046 425.31 468.228 430.923 471.741C436.562 475.27 439.5 479.044 439.5 482.869Z" stroke="black"/>
<path d="M439.5 501.713C439.5 505.539 436.562 509.312 430.923 512.842C425.31 516.354 417.155 519.536 407.032 522.216C386.795 527.573 358.81 530.892 327.88 530.892C296.949 530.892 268.964 527.573 248.727 522.216C238.605 519.536 230.449 516.354 224.836 512.842C219.197 509.312 216.26 505.539 216.26 501.713C216.26 497.887 219.197 494.114 224.836 490.585C230.449 487.072 238.605 483.89 248.727 481.21C268.964 475.853 296.949 472.534 327.88 472.534C358.81 472.534 386.795 475.853 407.032 481.21C417.155 483.89 425.31 487.072 430.923 490.585C436.562 494.114 439.5 497.887 439.5 501.713Z" stroke="black"/>
<defs>
<linearGradient id="paint0_linear_155:24177" x1="193.619" y1="37.6874" x2="193.619" y2="136.617" gradientUnits="userSpaceOnUse">
<stop stop-color="#293EF4"/>
<stop offset="1" stop-color="#EB6141" stop-opacity="0.54"/>
</linearGradient>
<linearGradient id="paint1_linear_155:24177" x1="334.946" y1="77.2592" x2="334.946" y2="424.934" gradientUnits="userSpaceOnUse">
<stop stop-color="#293EF4"/>
<stop offset="1" stop-color="#30D1FF"/>
</linearGradient>
<clipPath id="clip0_155:24177">
<rect width="104.196" height="30.7246" fill="white" transform="translate(0 210.107)"/>
</clipPath>
<clipPath id="clip1_155:24177">
<rect width="127.195" height="415.503" fill="white" transform="translate(271.35 77.2592)"/>
</clipPath>
</defs>
</svg>
