<svg width="328" height="528" viewBox="0 0 328 528" fill="none" xmlns="http://www.w3.org/2000/svg">
<path d="M291.602 288.343H42.1797" stroke="black" stroke-miterlimit="10"/>
<path d="M166.891 288.343C235.767 288.343 291.602 234.655 291.602 168.427C291.602 102.199 235.767 48.5115 166.891 48.5115C98.0148 48.5115 42.1797 102.199 42.1797 168.427C42.1797 234.655 98.0148 288.343 166.891 288.343Z" stroke="black" stroke-miterlimit="10"/>
<path d="M166.891 288.343C235.767 288.343 291.602 249.994 291.602 202.689C291.602 155.383 235.767 117.035 166.891 117.035C98.0148 117.035 42.1797 155.383 42.1797 202.689C42.1797 249.994 98.0148 288.343 166.891 288.343Z" stroke="black" stroke-miterlimit="10"/>
<path d="M166.891 288.343C235.767 288.343 291.602 264.024 291.602 234.026C291.602 204.027 235.767 179.708 166.891 179.708C98.0148 179.708 42.1797 204.027 42.1797 234.026C42.1797 264.024 98.0148 288.343 166.891 288.343Z" stroke="black" stroke-miterlimit="10"/>
<path d="M166.891 288.343C235.767 288.343 291.602 275.996 291.602 260.766C291.602 245.536 235.767 233.19 166.891 233.19C98.0148 233.19 42.1797 245.536 42.1797 260.766C42.1797 275.996 98.0148 288.343 166.891 288.343Z" stroke="black" stroke-miterlimit="10"/>
<path d="M166.891 288.342C235.767 288.342 291.602 283.666 291.602 277.897C291.602 272.128 235.767 267.451 166.891 267.451C98.0148 267.451 42.1797 272.128 42.1797 277.897C42.1797 283.666 98.0148 288.342 166.891 288.342Z" stroke="black" stroke-miterlimit="10"/>
<path d="M166.891 527.338C235.767 527.338 291.602 473.837 291.602 407.84C291.602 341.844 235.767 288.343 166.891 288.343C98.0148 288.343 42.1797 341.844 42.1797 407.84C42.1797 473.837 98.0148 527.338 166.891 527.338Z" stroke="black" stroke-miterlimit="10"/>
<path d="M166.891 458.815C235.767 458.815 291.602 420.653 291.602 373.579C291.602 326.504 235.767 288.343 166.891 288.343C98.0148 288.343 42.1797 326.504 42.1797 373.579C42.1797 420.653 98.0148 458.815 166.891 458.815Z" stroke="black" stroke-miterlimit="10"/>
<path d="M166.891 396.141C235.767 396.141 291.602 372.01 291.602 342.242C291.602 312.474 235.767 288.343 166.891 288.343C98.0148 288.343 42.1797 312.474 42.1797 342.242C42.1797 372.01 98.0148 396.141 166.891 396.141Z" stroke="black" stroke-miterlimit="10"/>
<path d="M166.891 342.66C235.767 342.66 291.602 330.501 291.602 315.501C291.602 300.502 235.767 288.343 166.891 288.343C98.0148 288.343 42.1797 300.502 42.1797 315.501C42.1797 330.501 98.0148 342.66 166.891 342.66Z" stroke="black" stroke-miterlimit="10"/>
<path d="M166.891 309.234C235.767 309.234 291.602 304.557 291.602 298.788C291.602 293.019 235.767 288.343 166.891 288.343C98.0148 288.343 42.1797 293.019 42.1797 298.788C42.1797 304.557 98.0148 309.234 166.891 309.234Z" stroke="black" stroke-miterlimit="10"/>
<path d="M170.34 157.601L148.756 151.741C148.6 151.699 148.434 151.705 148.281 151.757C148.128 151.809 147.993 151.906 147.895 152.035C147.797 152.163 147.739 152.318 147.729 152.48C147.719 152.642 147.757 152.803 147.838 152.942L159.144 172.234C159.232 172.392 159.265 172.575 159.238 172.755C159.21 172.934 159.124 173.099 158.993 173.224C158.862 173.348 158.692 173.426 158.512 173.445C158.332 173.463 158.151 173.421 157.997 173.325L139.275 161.077C139.138 160.99 138.979 160.945 138.817 160.949C138.656 160.952 138.499 161.003 138.366 161.096C138.233 161.189 138.131 161.318 138.072 161.469C138.014 161.62 138.001 161.785 138.036 161.943L142.829 183.788C142.869 183.968 142.847 184.156 142.767 184.322C142.686 184.488 142.552 184.622 142.385 184.701C142.219 184.781 142.031 184.802 141.851 184.761C141.671 184.72 141.511 184.619 141.396 184.475L127.377 167.049C127.275 166.926 127.139 166.835 126.986 166.788C126.833 166.742 126.67 166.741 126.516 166.786C126.363 166.831 126.226 166.92 126.123 167.042C126.019 167.164 125.954 167.314 125.935 167.473L123.745 189.73C123.726 189.914 123.646 190.085 123.518 190.218C123.39 190.35 123.221 190.435 123.038 190.459C122.855 190.484 122.67 190.445 122.512 190.351C122.353 190.257 122.232 190.111 122.166 189.939L114.218 169.036C114.161 168.884 114.06 168.752 113.927 168.658C113.795 168.564 113.638 168.512 113.475 168.508C113.313 168.504 113.153 168.548 113.016 168.636C112.879 168.723 112.772 168.85 112.707 168.999L103.735 189.505C103.662 189.676 103.533 189.818 103.368 189.907C103.204 189.995 103.014 190.024 102.831 189.99C102.647 189.955 102.481 189.859 102.36 189.717C102.239 189.575 102.169 189.396 102.164 189.21L101.067 166.874C101.059 166.712 101.002 166.556 100.905 166.426C100.808 166.296 100.674 166.198 100.521 166.145C100.369 166.091 100.203 166.084 100.046 166.124C99.8891 166.165 99.7476 166.251 99.6397 166.372L84.785 183.092C84.6609 183.221 84.4979 183.306 84.321 183.333C84.1441 183.361 83.963 183.329 83.8056 183.244C83.6483 183.159 83.5232 183.024 83.4498 182.861C83.3763 182.698 83.3584 182.515 83.3988 182.34L89.259 160.756C89.3007 160.6 89.2951 160.434 89.2428 160.281C89.1905 160.128 89.0939 159.993 88.9653 159.895C88.8366 159.797 88.6816 159.739 88.52 159.729C88.3584 159.719 88.1974 159.757 88.0575 159.838L68.7662 171.144C68.6077 171.232 68.4246 171.265 68.2455 171.238C68.0663 171.21 67.9013 171.124 67.7764 170.993C67.6515 170.862 67.5738 170.693 67.5554 170.512C67.537 170.332 67.579 170.151 67.6747 169.997L79.923 151.275C80.0101 151.138 80.0547 150.979 80.0514 150.817C80.048 150.656 79.9967 150.499 79.9041 150.366C79.8114 150.233 79.6815 150.131 79.5308 150.072C79.3801 150.014 79.2153 150.001 79.0574 150.036L57.2119 154.829C57.032 154.869 56.8438 154.847 56.6779 154.767C56.512 154.686 56.3784 154.552 56.2987 154.385C56.219 154.219 56.198 154.031 56.2392 153.851C56.2804 153.671 56.3813 153.511 56.5254 153.396L73.951 139.377C74.0742 139.275 74.1648 139.139 74.2116 138.986C74.2584 138.833 74.2593 138.67 74.2143 138.516C74.1692 138.363 74.0801 138.226 73.958 138.123C73.836 138.019 73.6862 137.954 73.5274 137.935L51.2697 135.745C51.0863 135.726 50.9146 135.646 50.7822 135.518C50.6499 135.39 50.5647 135.221 50.5406 135.038C50.5164 134.855 50.5546 134.67 50.649 134.512C50.7434 134.353 50.8885 134.232 51.0607 134.166L71.964 126.218C72.1185 126.162 72.2523 126.06 72.3478 125.926C72.4433 125.792 72.4961 125.632 72.4991 125.468C72.5021 125.303 72.4553 125.142 72.3648 125.004C72.2743 124.867 72.1443 124.76 71.992 124.698L51.4954 115.735C51.3235 115.662 51.1816 115.533 51.0934 115.368C51.0051 115.204 50.9757 115.014 51.0101 114.831C51.0446 114.647 51.1407 114.481 51.2826 114.36C51.4245 114.239 51.6036 114.169 51.7902 114.164L74.1263 113.067C74.2882 113.059 74.444 113.002 74.5738 112.905C74.7036 112.808 74.8016 112.674 74.8554 112.521C74.9092 112.369 74.9163 112.203 74.8758 112.046C74.8354 111.889 74.7492 111.748 74.6282 111.64L57.9078 96.7851C57.7788 96.6609 57.6941 96.4979 57.6667 96.321C57.6392 96.1441 57.6706 95.963 57.7559 95.8057C57.8413 95.6483 57.9759 95.5233 58.1392 95.4498C58.3025 95.3763 58.4853 95.3584 58.6597 95.3989L80.2439 101.259C80.4004 101.301 80.5657 101.295 80.719 101.243C80.8722 101.191 81.0065 101.094 81.1048 100.965C81.2031 100.837 81.261 100.682 81.2711 100.52C81.2813 100.358 81.2433 100.197 81.1619 100.057L69.8558 80.7662C69.7678 80.6078 69.7349 80.4246 69.7623 80.2455C69.7897 80.0663 69.8758 79.9014 70.0071 79.7765C70.1384 79.6516 70.3075 79.5738 70.4877 79.5554C70.668 79.537 70.8493 79.579 71.0032 79.6748L89.7254 91.9231C89.8618 92.0101 90.0209 92.0548 90.1826 92.0514C90.3443 92.048 90.5014 91.9967 90.634 91.9041C90.7666 91.8114 90.8688 91.6815 90.9275 91.5308C90.9863 91.3801 90.9991 91.2154 90.9642 91.0574L86.1713 69.212C86.131 69.032 86.1529 68.8438 86.2334 68.6779C86.3139 68.5121 86.4483 68.3784 86.6146 68.2987C86.7808 68.219 86.9692 68.1981 87.1489 68.2392C87.3286 68.2804 87.4891 68.3813 87.6041 68.5254L101.623 85.951C101.725 86.0742 101.861 86.1648 102.014 86.2116C102.167 86.2584 102.33 86.2594 102.484 86.2143C102.637 86.1692 102.774 86.0801 102.877 85.9581C102.981 85.836 103.046 85.6863 103.065 85.5275L105.255 63.2697C105.274 63.0864 105.354 62.9146 105.482 62.7823C105.61 62.6499 105.779 62.5648 105.962 62.5406C106.145 62.5164 106.33 62.5546 106.488 62.649C106.647 62.7434 106.768 62.8885 106.834 63.0608L114.782 83.964C114.839 84.116 114.94 84.2475 115.072 84.3416C115.205 84.4357 115.362 84.4882 115.525 84.4922C115.687 84.4962 115.847 84.4516 115.984 84.3641C116.121 84.2767 116.228 84.1503 116.293 84.0013L125.265 63.4955C125.338 63.3235 125.467 63.1817 125.632 63.0934C125.796 63.0051 125.986 62.9757 126.169 63.0102C126.353 63.0446 126.519 63.1407 126.64 63.2826C126.761 63.4245 126.831 63.6037 126.836 63.7902L127.933 86.1263C127.941 86.2883 127.998 86.444 128.095 86.5738C128.192 86.7036 128.326 86.8016 128.478 86.8554C128.631 86.9092 128.797 86.9163 128.954 86.8759C129.111 86.8354 129.252 86.7492 129.36 86.6282L144.215 69.9079C144.339 69.7788 144.502 69.6941 144.679 69.6667C144.856 69.6392 145.037 69.6706 145.194 69.756C145.352 69.8413 145.477 69.976 145.55 70.1392C145.624 70.3025 145.642 70.4853 145.601 70.6597L139.741 92.244C139.699 92.4004 139.705 92.5657 139.757 92.719C139.809 92.8722 139.906 93.0065 140.035 93.1048C140.163 93.2031 140.318 93.261 140.48 93.2712C140.642 93.2813 140.803 93.2433 140.942 93.1619L160.234 81.8558C160.392 81.7678 160.575 81.7349 160.755 81.7623C160.934 81.7897 161.099 81.8758 161.224 82.0071C161.348 82.1384 161.426 82.3075 161.445 82.4878C161.463 82.668 161.421 82.8493 161.325 83.0032L149.077 101.725C148.99 101.862 148.945 102.021 148.949 102.183C148.952 102.344 149.003 102.501 149.096 102.634C149.189 102.767 149.318 102.869 149.469 102.928C149.62 102.986 149.785 102.999 149.943 102.964L171.788 98.1713C171.968 98.131 172.156 98.1529 172.322 98.2335C172.488 98.314 172.622 98.4483 172.701 98.6146C172.781 98.7809 172.802 98.9692 172.761 99.149C172.72 99.3287 172.619 99.4891 172.475 99.6041L155.049 113.623C154.926 113.725 154.835 113.861 154.788 114.014C154.742 114.167 154.741 114.33 154.786 114.484C154.831 114.637 154.92 114.774 155.042 114.877C155.164 114.981 155.314 115.046 155.473 115.065L177.73 117.255C177.914 117.274 178.085 117.354 178.218 117.482C178.35 117.61 178.435 117.779 178.459 117.962C178.484 118.145 178.445 118.33 178.351 118.488C178.257 118.647 178.111 118.768 177.939 118.834L157.036 126.782C156.884 126.839 156.752 126.94 156.658 127.073C156.564 127.205 156.512 127.362 156.508 127.525C156.504 127.687 156.548 127.847 156.636 127.984C156.723 128.121 156.85 128.228 156.999 128.293L177.505 137.265C177.676 137.338 177.818 137.467 177.907 137.632C177.995 137.796 178.024 137.986 177.99 138.169C177.955 138.353 177.859 138.519 177.717 138.64C177.575 138.761 177.396 138.831 177.21 138.836L154.874 139.933C154.712 139.941 154.556 139.998 154.426 140.095C154.296 140.192 154.198 140.326 154.145 140.479C154.091 140.631 154.084 140.797 154.124 140.954C154.165 141.111 154.251 141.252 154.372 141.36L171.092 156.215C171.221 156.339 171.306 156.502 171.333 156.679C171.361 156.856 171.329 157.037 171.244 157.194C171.159 157.352 171.024 157.477 170.861 157.55C170.698 157.624 170.515 157.642 170.34 157.601Z" fill="url(#paint0_linear_228:909)"/>
<g clip-path="url(#clip0_228:909)">
<path d="M135.939 125.487C135.782 124.861 135.616 124.244 135.468 123.626C135.468 123.626 133.503 115.908 132.962 113.672C132.794 112.963 132.517 112.285 132.143 111.662C131.409 110.409 130.245 109.469 128.863 109.014C128.095 108.75 127.299 108.549 126.539 108.348L125.823 108.156L119.939 106.564L118.034 106.048C117.435 105.9 116.835 105.734 116.236 105.568C114.85 105.174 113.446 104.798 112.024 104.44C110.969 104.158 109.854 104.156 108.79 104.434C107.776 104.711 106.843 105.235 106.074 105.958C104.92 107.112 103.739 108.293 102.602 109.43L100.393 111.639C98.2372 113.795 96.0907 115.941 93.9352 118.097C93.0907 118.871 92.4728 119.861 92.1495 120.957C91.8261 122.053 91.8098 123.212 92.1022 124.308C92.5554 126.223 93.0621 128.172 93.5157 130.015L94.0396 132.054L94.6774 134.496L96.0305 139.853L96.0654 139.996C96.2333 140.791 96.5085 141.557 96.8834 142.275C97.6925 143.694 99.025 144.735 100.6 145.18C101.584 145.46 102.576 145.731 103.56 145.993L112.673 148.45L116.375 149.447C117.467 149.812 118.634 149.909 119.778 149.729L120.352 149.6C121.353 149.346 122.275 148.84 123.031 148.131C123.807 147.355 124.582 146.58 125.358 145.804L130.769 140.393L132.122 139.04C133.204 137.958 134.323 136.839 135.423 135.739C136.181 134.981 136.729 134.04 137.012 133.01C137.296 131.98 137.305 130.897 137.039 129.869C136.699 128.393 136.297 126.927 135.939 125.487ZM134.613 129.572C134.709 129.938 134.796 130.296 134.865 130.672C134.973 131.199 134.967 131.744 134.848 132.272C134.728 132.799 134.498 133.297 134.173 133.732C133.793 134.225 133.374 134.686 132.919 135.111L132.747 135.282C131.548 136.481 130.357 137.672 129.14 138.889L121.637 146.286C121.093 146.85 120.405 147.255 119.649 147.454C119.562 147.487 119.472 147.512 119.38 147.528C118.642 147.653 117.888 147.602 117.177 147.381C114.393 146.605 111.642 145.862 108.923 145.152L105.104 144.111L103.978 143.814C103.047 143.569 102.091 143.316 101.179 143.053C100.476 142.867 99.8389 142.494 99.3346 141.974C98.8304 141.454 98.4776 140.806 98.3134 140.098C97.9285 138.702 97.6147 137.379 97.2833 136.019L96.349 132.361L94.1837 123.847C93.9623 123.108 93.9559 122.318 94.1655 121.57C94.375 120.821 94.7918 120.145 95.3675 119.619L102.266 112.827L104.286 110.807L105.188 109.905C105.928 109.166 106.685 108.408 107.434 107.66C107.924 107.186 108.524 106.843 109.179 106.663C109.924 106.479 110.702 106.493 111.436 106.701C113.144 107.147 114.852 107.61 116.569 108.083L127.542 111.047C128.158 111.2 128.729 111.491 129.212 111.9C129.695 112.308 130.078 112.822 130.33 113.403C130.468 113.725 130.573 114.06 130.646 114.404L130.681 114.547C132.091 119.492 133.374 124.509 134.64 129.545L134.613 129.572Z" fill="white"/>
<path d="M110.773 141.807C110.533 141.87 110.28 141.854 110.051 141.762C109.823 141.67 109.631 141.506 109.504 141.296C108.812 140.35 100.182 128.618 100.182 128.618L102.294 136.971C102.332 137.112 102.355 137.256 102.363 137.401C102.372 137.651 102.293 137.897 102.139 138.096C101.985 138.295 101.767 138.435 101.523 138.491L101.361 138.528C101.094 138.564 100.825 138.501 100.604 138.35C100.384 138.2 100.227 137.972 100.166 137.711L99.1794 133.839C98.3118 130.47 97.4592 127.098 96.6216 123.723C96.5613 123.527 96.5444 123.319 96.5719 123.114C96.6086 122.904 96.71 122.709 96.862 122.557C97.0139 122.405 97.2089 122.303 97.4197 122.267C97.6312 122.204 97.8559 122.208 98.0636 122.277C98.2714 122.346 98.4522 122.477 98.5817 122.653L99.8248 124.329L107.993 135.42C107.304 132.656 103.235 116.647 103.235 116.647C103.189 116.5 103.173 116.345 103.188 116.191C103.203 116.037 103.248 115.888 103.322 115.751C103.396 115.614 103.496 115.493 103.616 115.395C103.737 115.298 103.876 115.225 104.025 115.181C104.174 115.144 104.33 115.137 104.482 115.161C104.633 115.185 104.778 115.24 104.907 115.322C105.037 115.404 105.148 115.512 105.233 115.638C105.319 115.765 105.379 115.908 105.407 116.059C105.923 118.035 110.227 135.037 110.227 135.037L111.562 140.323C111.643 140.581 111.631 140.861 111.528 141.113C111.425 141.366 111.237 141.576 110.998 141.707L110.773 141.807Z" fill="white"/>
<path d="M117.268 144.46C117.068 144.521 116.854 144.521 116.655 144.46C116.456 144.399 116.28 144.28 116.151 144.118C116.032 143.955 115.945 143.77 115.895 143.573L107.556 110.812C107.518 110.673 107.508 110.526 107.526 110.382C107.544 110.237 107.591 110.098 107.664 109.97C107.736 109.843 107.833 109.732 107.948 109.642C108.064 109.551 108.195 109.485 108.336 109.446C108.536 109.39 108.746 109.389 108.945 109.441L113.668 110.557L117.827 111.524C118.081 111.562 118.313 111.684 118.486 111.872C118.659 112.059 118.763 112.301 118.781 112.556C118.799 112.812 118.73 113.068 118.585 113.282C118.44 113.496 118.228 113.656 117.983 113.736C117.832 113.767 117.677 113.771 117.526 113.747C116.891 113.617 116.247 113.46 115.612 113.312L110.146 112.032L113.789 126.064L120.17 124.364C120.385 124.3 120.613 124.302 120.825 124.369C121.037 124.437 121.223 124.566 121.359 124.741C121.487 124.899 121.568 125.09 121.592 125.293C121.616 125.495 121.582 125.701 121.495 125.887C121.407 126.057 121.281 126.206 121.129 126.321C120.976 126.437 120.799 126.517 120.612 126.556L116.439 127.668L114.348 128.228L117.578 141.018L117.63 141.215L118.093 143.084C118.157 143.322 118.135 143.576 118.032 143.802C117.93 144.029 117.752 144.213 117.529 144.324C117.446 144.376 117.358 144.421 117.268 144.46Z" fill="white"/>
<path d="M129.014 135.012C128.865 135.054 128.709 135.065 128.557 135.042C128.405 135.02 128.259 134.966 128.13 134.883C128.001 134.8 127.891 134.69 127.808 134.561C127.726 134.432 127.671 134.286 127.649 134.134L125.144 124.179L124.708 122.462C124.091 120.041 123.477 117.623 122.866 115.208C122.813 115.012 122.786 115.003 122.643 114.986C122.026 114.874 121.426 114.743 120.818 114.604L120.317 114.5C120.122 114.454 119.941 114.363 119.789 114.233C119.637 114.103 119.519 113.939 119.444 113.753C119.385 113.574 119.371 113.383 119.406 113.196C119.44 113.01 119.52 112.834 119.639 112.686C119.783 112.504 119.982 112.373 120.206 112.315C120.415 112.265 120.632 112.26 120.842 112.301L127.686 113.734C127.877 113.757 128.059 113.827 128.215 113.939C128.371 114.051 128.496 114.2 128.578 114.373C128.652 114.524 128.69 114.691 128.69 114.86C128.691 115.029 128.653 115.196 128.58 115.35C128.514 115.489 128.417 115.613 128.297 115.712C128.177 115.81 128.037 115.881 127.887 115.919C127.75 115.96 127.606 115.97 127.466 115.948C127.018 115.898 126.589 115.793 126.159 115.706C125.989 115.663 125.265 115.515 125.265 115.515L127.5 124.298C127.5 124.298 128.137 126.865 128.285 127.428L129.848 133.555C129.929 133.767 129.939 134.001 129.878 134.222C129.817 134.443 129.688 134.64 129.509 134.784C129.366 134.903 129.196 134.981 129.014 135.012Z" fill="white"/>
</g>
<path d="M214.993 448.977L203.875 429.571C203.793 429.431 203.673 429.318 203.527 429.246C203.382 429.175 203.219 429.148 203.058 429.17C202.898 429.191 202.747 429.26 202.626 429.367C202.504 429.474 202.417 429.615 202.376 429.771L196.73 451.407C196.68 451.581 196.573 451.734 196.427 451.841C196.281 451.949 196.104 452.004 195.923 452C195.742 451.995 195.567 451.931 195.427 451.816C195.286 451.702 195.188 451.544 195.146 451.367L190.569 429.468C190.534 429.31 190.453 429.166 190.336 429.054C190.219 428.942 190.072 428.867 189.913 428.839C189.753 428.811 189.589 428.83 189.441 428.895C189.293 428.96 189.168 429.068 189.081 429.204L177.023 448.04C176.924 448.196 176.775 448.314 176.601 448.374C176.427 448.434 176.237 448.434 176.063 448.372C175.89 448.311 175.742 448.193 175.644 448.037C175.546 447.881 175.503 447.696 175.524 447.513L177.933 425.278C177.948 425.119 177.916 424.959 177.841 424.817C177.766 424.676 177.651 424.56 177.511 424.483C177.37 424.407 177.21 424.373 177.051 424.386C176.892 424.399 176.74 424.459 176.614 424.558L159.326 438.747C159.184 438.864 159.006 438.929 158.822 438.932C158.637 438.935 158.457 438.876 158.311 438.763C158.165 438.651 158.061 438.493 158.016 438.315C157.97 438.136 157.987 437.947 158.062 437.779L167.223 417.378C167.29 417.23 167.312 417.066 167.285 416.906C167.258 416.745 167.183 416.597 167.071 416.479C166.959 416.362 166.815 416.28 166.656 416.245C166.498 416.21 166.332 416.224 166.181 416.283L145.337 424.439C145.164 424.509 144.972 424.518 144.794 424.464C144.615 424.41 144.46 424.297 144.355 424.143C144.249 423.989 144.2 423.803 144.214 423.617C144.229 423.431 144.307 423.255 144.435 423.12L159.453 406.55C159.561 406.429 159.632 406.279 159.655 406.119C159.678 405.959 159.653 405.795 159.583 405.649C159.513 405.502 159.401 405.38 159.261 405.298C159.121 405.216 158.96 405.177 158.799 405.186L136.472 406.505C136.293 406.509 136.117 406.453 135.973 406.347C135.828 406.242 135.723 406.092 135.672 405.92C135.621 405.748 135.628 405.565 135.691 405.397C135.755 405.23 135.871 405.088 136.023 404.993L155.429 393.875C155.569 393.793 155.682 393.673 155.754 393.527C155.825 393.382 155.852 393.219 155.83 393.058C155.809 392.898 155.74 392.747 155.633 392.626C155.526 392.504 155.385 392.417 155.229 392.376L133.593 386.73C133.419 386.68 133.266 386.573 133.159 386.427C133.051 386.281 132.996 386.104 133 385.923C133.005 385.742 133.069 385.567 133.184 385.427C133.298 385.286 133.456 385.188 133.633 385.146L155.532 380.569C155.69 380.534 155.834 380.453 155.946 380.336C156.058 380.219 156.133 380.072 156.161 379.913C156.189 379.753 156.17 379.589 156.105 379.441C156.04 379.293 155.932 379.168 155.796 379.081L136.96 367.023C136.804 366.924 136.686 366.775 136.626 366.601C136.566 366.427 136.566 366.237 136.628 366.063C136.689 365.89 136.807 365.742 136.963 365.644C137.119 365.546 137.304 365.503 137.487 365.524L159.722 367.933C159.881 367.948 160.041 367.916 160.183 367.841C160.324 367.766 160.44 367.651 160.517 367.511C160.593 367.37 160.627 367.21 160.614 367.051C160.601 366.892 160.541 366.74 160.442 366.614L146.253 349.326C146.136 349.184 146.071 349.006 146.068 348.822C146.065 348.637 146.124 348.457 146.237 348.311C146.349 348.165 146.507 348.061 146.685 348.016C146.864 347.97 147.053 347.987 147.221 348.062L167.622 357.223C167.771 357.293 167.938 357.315 168.1 357.288C168.262 357.261 168.412 357.185 168.531 357.071C168.649 356.957 168.731 356.809 168.764 356.648C168.797 356.487 168.78 356.32 168.717 356.168L160.561 335.337C160.491 335.164 160.482 334.972 160.536 334.794C160.59 334.615 160.703 334.46 160.857 334.355C161.011 334.249 161.197 334.2 161.383 334.214C161.569 334.229 161.745 334.307 161.88 334.435L178.45 349.453C178.571 349.561 178.721 349.632 178.881 349.655C179.041 349.678 179.205 349.653 179.351 349.583C179.498 349.513 179.62 349.401 179.702 349.261C179.784 349.121 179.823 348.96 179.814 348.799L178.495 326.472C178.491 326.293 178.547 326.117 178.653 325.973C178.758 325.828 178.908 325.723 179.08 325.672C179.252 325.621 179.435 325.628 179.603 325.691C179.77 325.755 179.912 325.871 180.007 326.023L191.125 345.429C191.207 345.569 191.327 345.682 191.473 345.754C191.618 345.825 191.781 345.852 191.942 345.83C192.102 345.809 192.253 345.74 192.374 345.633C192.496 345.526 192.583 345.385 192.624 345.229L198.27 323.593C198.32 323.419 198.427 323.266 198.573 323.159C198.719 323.051 198.896 322.996 199.077 323C199.258 323.005 199.433 323.069 199.573 323.184C199.714 323.298 199.812 323.456 199.854 323.633L204.431 345.532C204.466 345.69 204.547 345.834 204.664 345.946C204.781 346.058 204.928 346.133 205.087 346.161C205.247 346.189 205.411 346.17 205.559 346.105C205.707 346.04 205.832 345.932 205.919 345.796L217.977 326.96C218.076 326.804 218.225 326.686 218.399 326.626C218.573 326.566 218.763 326.566 218.937 326.628C219.11 326.689 219.258 326.807 219.356 326.963C219.454 327.119 219.497 327.304 219.476 327.488L217.067 349.722C217.052 349.881 217.084 350.041 217.159 350.183C217.234 350.324 217.349 350.44 217.489 350.517C217.63 350.593 217.79 350.627 217.949 350.614C218.108 350.601 218.26 350.541 218.386 350.442L235.674 336.253C235.816 336.136 235.994 336.071 236.178 336.068C236.363 336.065 236.543 336.124 236.689 336.237C236.835 336.349 236.939 336.507 236.984 336.685C237.03 336.864 237.013 337.053 236.938 337.221L227.777 357.622C227.71 357.77 227.688 357.934 227.715 358.094C227.742 358.255 227.817 358.403 227.929 358.521C228.041 358.638 228.185 358.72 228.344 358.755C228.502 358.79 228.668 358.776 228.819 358.717L249.663 350.561C249.836 350.491 250.028 350.482 250.206 350.536C250.385 350.59 250.54 350.703 250.646 350.857C250.751 351.011 250.8 351.197 250.786 351.383C250.771 351.569 250.693 351.745 250.565 351.88L235.547 368.45C235.439 368.571 235.368 368.721 235.345 368.881C235.322 369.041 235.347 369.205 235.417 369.351C235.487 369.498 235.599 369.62 235.739 369.702C235.879 369.784 236.04 369.823 236.201 369.814L258.528 368.495C258.707 368.491 258.883 368.547 259.027 368.653C259.172 368.758 259.277 368.908 259.328 369.08C259.379 369.252 259.372 369.435 259.309 369.603C259.245 369.77 259.129 369.912 258.977 370.007L239.571 381.125C239.431 381.207 239.318 381.327 239.246 381.473C239.175 381.618 239.148 381.781 239.17 381.942C239.191 382.102 239.26 382.253 239.367 382.374C239.474 382.496 239.615 382.583 239.771 382.624L261.407 388.27C261.581 388.32 261.734 388.427 261.841 388.573C261.949 388.719 262.004 388.896 262 389.077C261.995 389.258 261.931 389.433 261.816 389.573C261.702 389.714 261.544 389.812 261.367 389.854L239.468 394.431C239.31 394.466 239.166 394.547 239.054 394.664C238.942 394.781 238.867 394.928 238.839 395.087C238.811 395.247 238.83 395.411 238.895 395.559C238.96 395.707 239.068 395.832 239.204 395.919L258.04 407.977C258.196 408.076 258.314 408.225 258.374 408.399C258.434 408.573 258.434 408.763 258.372 408.937C258.311 409.11 258.193 409.258 258.037 409.356C257.881 409.454 257.696 409.497 257.513 409.476L235.278 407.067C235.119 407.052 234.959 407.084 234.817 407.159C234.676 407.234 234.56 407.349 234.483 407.489C234.407 407.63 234.373 407.79 234.386 407.949C234.399 408.108 234.459 408.26 234.558 408.386L248.747 425.674C248.864 425.816 248.929 425.994 248.932 426.178C248.935 426.363 248.876 426.543 248.763 426.689C248.651 426.835 248.493 426.939 248.315 426.984C248.136 427.03 247.947 427.013 247.779 426.938L227.378 417.777C227.23 417.71 227.066 417.688 226.906 417.715C226.745 417.742 226.597 417.817 226.479 417.929C226.362 418.041 226.28 418.185 226.245 418.344C226.21 418.502 226.224 418.668 226.283 418.819L234.439 439.663C234.509 439.836 234.518 440.028 234.464 440.206C234.41 440.385 234.297 440.54 234.143 440.646C233.989 440.751 233.803 440.8 233.617 440.786C233.431 440.771 233.255 440.693 233.12 440.565L216.55 425.547C216.429 425.439 216.279 425.368 216.119 425.345C215.959 425.322 215.795 425.347 215.649 425.417C215.502 425.487 215.38 425.599 215.298 425.739C215.216 425.879 215.177 426.04 215.186 426.201L216.505 448.528C216.509 448.707 216.453 448.883 216.347 449.027C216.242 449.172 216.092 449.277 215.92 449.328C215.748 449.379 215.565 449.372 215.397 449.309C215.23 449.245 215.088 449.129 214.993 448.977Z" fill="url(#paint1_linear_228:909)"/>
<g clip-path="url(#clip1_228:909)">
<path d="M213.73 402.09C214.061 401.536 214.38 400.983 214.712 400.441C214.712 400.441 218.78 393.595 219.979 391.631C220.361 391.01 220.645 390.335 220.821 389.63C221.188 388.225 221.03 386.737 220.375 385.439C220.018 384.709 219.597 384.004 219.201 383.324L218.831 382.682L215.796 377.396L214.814 375.684C214.495 375.156 214.189 374.615 213.883 374.073C213.181 372.815 212.454 371.556 211.702 370.298C211.154 369.352 210.368 368.563 209.419 368.007C208.506 367.485 207.476 367.196 206.421 367.164C204.789 367.164 203.118 367.164 201.511 367.164H198.386C195.338 367.164 192.302 367.164 189.254 367.164C188.109 367.114 186.972 367.377 185.969 367.923C184.965 368.469 184.134 369.278 183.565 370.26C182.532 371.934 181.512 373.671 180.53 375.294L179.458 377.107L178.183 379.284L175.352 384.029L175.275 384.155C174.832 384.835 174.484 385.572 174.242 386.345C173.811 387.92 174.017 389.599 174.816 391.027C175.313 391.921 175.824 392.814 176.334 393.695L181.04 401.876L182.953 405.199C183.467 406.229 184.224 407.122 185.16 407.804L185.657 408.119C186.545 408.647 187.555 408.942 188.591 408.975C189.688 408.975 190.784 408.975 191.881 408.975H199.534H201.447C202.978 408.975 204.559 408.975 206.115 408.975C207.187 408.975 208.24 408.697 209.169 408.169C210.098 407.641 210.87 406.882 211.408 405.967C212.212 404.683 212.964 403.361 213.73 402.09ZM209.903 404.041C209.712 404.368 209.521 404.683 209.304 404.998C209.007 405.446 208.617 405.828 208.16 406.116C207.703 406.405 207.188 406.594 206.651 406.672C206.034 406.752 205.411 406.781 204.789 406.76H204.546C202.85 406.76 201.167 406.76 199.445 406.76L188.91 406.684C188.126 406.699 187.353 406.498 186.677 406.105C186.593 406.067 186.511 406.02 186.435 405.967C185.825 405.533 185.327 404.964 184.981 404.305C183.561 401.788 182.141 399.317 180.721 396.892L178.757 393.456L178.17 392.449C177.686 391.618 177.188 390.763 176.729 389.932C176.364 389.304 176.177 388.59 176.188 387.865C176.199 387.141 176.408 386.433 176.793 385.816C177.507 384.558 178.221 383.4 178.948 382.204L180.874 378.957L185.364 371.405C185.73 370.726 186.284 370.163 186.961 369.782C187.638 369.401 188.411 369.218 189.19 369.253L198.871 369.328H201.728H203.003C204.049 369.328 205.12 369.328 206.179 369.328C206.86 369.34 207.527 369.522 208.118 369.857C208.775 370.255 209.315 370.814 209.686 371.481C210.579 373.004 211.459 374.539 212.339 376.087L218.002 385.942C218.33 386.486 218.527 387.096 218.58 387.726C218.634 388.356 218.541 388.99 218.308 389.58C218.178 389.905 218.015 390.217 217.824 390.511L217.747 390.637C215.247 395.13 212.607 399.586 209.942 404.041H209.903Z" fill="white"/>
<path d="M184.396 395.835C184.181 395.71 184.014 395.52 183.917 395.293C183.821 395.066 183.801 394.815 183.86 394.576C184.039 393.418 186.232 379.02 186.232 379.02L181.819 386.42C181.747 386.546 181.662 386.665 181.564 386.773C181.394 386.956 181.164 387.074 180.914 387.106C180.665 387.138 180.412 387.083 180.2 386.949L180.059 386.861C179.845 386.698 179.699 386.463 179.649 386.2C179.6 385.938 179.65 385.667 179.791 385.439L181.832 382.003C183.601 379.007 185.382 376.02 187.176 373.041C187.273 372.86 187.407 372.701 187.572 372.576C187.747 372.453 187.956 372.386 188.171 372.386C188.386 372.386 188.596 372.453 188.771 372.576C188.964 372.681 189.121 372.843 189.219 373.038C189.317 373.234 189.352 373.455 189.319 373.671L189.013 375.735L186.947 389.353C188.413 386.911 196.857 372.714 196.857 372.714C196.928 372.578 197.026 372.457 197.145 372.359C197.265 372.26 197.403 372.187 197.552 372.142C197.7 372.097 197.856 372.083 198.011 372.099C198.166 372.115 198.315 372.162 198.451 372.236C198.584 372.315 198.698 372.42 198.789 372.545C198.879 372.669 198.942 372.81 198.976 372.96C199.009 373.109 199.011 373.264 198.983 373.414C198.954 373.564 198.895 373.707 198.808 373.834C197.775 375.596 188.796 390.662 188.796 390.662L186.003 395.344C185.878 395.584 185.671 395.773 185.42 395.878C185.168 395.984 184.887 396 184.625 395.923L184.396 395.835Z" fill="white"/>
<path d="M187.111 402.304C186.926 402.205 186.775 402.054 186.678 401.871C186.58 401.687 186.54 401.478 186.563 401.272C186.595 401.072 186.664 400.88 186.767 400.706L204.036 371.644C204.108 371.518 204.204 371.407 204.32 371.318C204.435 371.229 204.567 371.163 204.708 371.125C204.849 371.086 204.996 371.075 205.141 371.093C205.287 371.111 205.427 371.157 205.554 371.229C205.735 371.331 205.884 371.479 205.988 371.657L208.539 375.785L210.796 379.41C210.949 379.616 211.026 379.867 211.016 380.122C211.006 380.377 210.909 380.621 210.74 380.814C210.572 381.008 210.343 381.14 210.089 381.189C209.835 381.238 209.572 381.201 209.342 381.084C209.213 381 209.101 380.893 209.011 380.769C208.654 380.228 208.309 379.662 207.965 379.108L205.006 374.338L197.659 386.836L203.373 390.146C203.57 390.253 203.73 390.415 203.833 390.613C203.935 390.81 203.975 391.033 203.947 391.253C203.926 391.455 203.848 391.648 203.722 391.808C203.595 391.968 203.426 392.09 203.233 392.16C203.05 392.218 202.857 392.234 202.667 392.208C202.477 392.182 202.296 392.114 202.136 392.009L198.399 389.844L196.524 388.761L189.764 400.089L189.662 400.265L188.667 401.914C188.544 402.128 188.35 402.292 188.117 402.379C187.884 402.467 187.628 402.471 187.392 402.392C187.296 402.37 187.202 402.341 187.111 402.304Z" fill="white"/>
<path d="M202.098 403.928C201.962 403.853 201.845 403.75 201.753 403.626C201.66 403.503 201.596 403.361 201.563 403.211C201.531 403.061 201.531 402.906 201.564 402.757C201.596 402.607 201.661 402.465 201.753 402.342L207.021 393.532L207.926 392.009C209.202 389.861 210.477 387.717 211.753 385.577C211.855 385.401 211.842 385.376 211.753 385.263C211.396 384.746 211.064 384.23 210.732 383.702L210.452 383.274C210.346 383.104 210.283 382.911 210.267 382.712C210.252 382.513 210.284 382.313 210.363 382.129C210.447 381.96 210.573 381.815 210.729 381.708C210.885 381.6 211.066 381.532 211.255 381.512C211.486 381.485 211.719 381.534 211.919 381.65C212.102 381.763 212.258 381.913 212.378 382.091L216.204 387.943C216.323 388.095 216.402 388.273 216.433 388.462C216.464 388.651 216.447 388.845 216.383 389.026C216.328 389.185 216.237 389.329 216.118 389.449C215.999 389.569 215.854 389.661 215.694 389.718C215.548 389.77 215.392 389.788 215.237 389.773C215.083 389.758 214.934 389.709 214.801 389.63C214.675 389.562 214.566 389.468 214.482 389.353C214.202 389.001 213.972 388.623 213.73 388.258C213.64 388.107 213.232 387.49 213.232 387.49L208.602 395.281C208.602 395.281 207.238 397.547 206.944 398.05L203.718 403.487C203.624 403.695 203.466 403.868 203.267 403.981C203.067 404.094 202.837 404.141 202.608 404.117C202.424 404.1 202.248 404.035 202.098 403.928Z" fill="white"/>
</g>
<circle cx="227" cy="130" r="28" fill="url(#paint2_linear_228:909)"/>
<circle cx="166.5" cy="225.5" r="17.5" fill="url(#paint3_linear_228:909)"/>
<circle cx="30.5" cy="107.5" r="11.5" fill="url(#paint4_linear_228:909)"/>
<circle cx="233.5" cy="17.5" r="17.5" fill="url(#paint5_linear_228:909)"/>
<circle cx="321" cy="250" r="7" fill="url(#paint6_linear_228:909)"/>
<circle cx="11.5" cy="219.5" r="11.5" fill="url(#paint7_linear_228:909)"/>
<circle cx="246" cy="192" r="7" fill="black"/>
<circle cx="119.5" cy="339.5" r="4.5" fill="black"/>
<circle cx="70.5" cy="198.5" r="4.5" fill="black"/>
<circle cx="194.5" cy="522.5" r="4.5" fill="black"/>
<circle cx="89" cy="440" r="7" fill="black"/>
<circle cx="119.5" cy="20.5" r="4.5" fill="black"/>
<circle cx="296.5" cy="77.5" r="4.5" fill="black"/>
<defs>
<linearGradient id="paint0_linear_228:909" x1="68.8916" y1="80.8916" x2="160.108" y2="172.108" gradientUnits="userSpaceOnUse">
<stop stop-color="#30D1FF" stop-opacity="0.46"/>
<stop offset="1" stop-color="#A3A9F5"/>
</linearGradient>
<linearGradient id="paint1_linear_228:909" x1="197.5" y1="323" x2="197.5" y2="452" gradientUnits="userSpaceOnUse">
<stop stop-color="#30D1FF" stop-opacity="0.46"/>
<stop offset="1" stop-color="#A3A9F5"/>
</linearGradient>
<linearGradient id="paint2_linear_228:909" x1="191.8" y1="102" x2="288.6" y2="182.8" gradientUnits="userSpaceOnUse">
<stop stop-color="white"/>
<stop offset="0.630208" stop-color="#F25929"/>
<stop offset="1" stop-color="#A3C8F5"/>
</linearGradient>
<linearGradient id="paint3_linear_228:909" x1="144.5" y1="208" x2="205" y2="258.5" gradientUnits="userSpaceOnUse">
<stop stop-color="white"/>
<stop offset="0.630208" stop-color="#F25929"/>
<stop offset="1" stop-color="#A3C8F5"/>
</linearGradient>
<linearGradient id="paint4_linear_228:909" x1="16.0429" y1="96" x2="55.8" y2="129.186" gradientUnits="userSpaceOnUse">
<stop stop-color="white"/>
<stop offset="0.630208" stop-color="#F25929"/>
<stop offset="1" stop-color="#A3C8F5"/>
</linearGradient>
<linearGradient id="paint5_linear_228:909" x1="211.5" y1="3.63748e-07" x2="272" y2="50.5" gradientUnits="userSpaceOnUse">
<stop stop-color="white"/>
<stop offset="0.630208" stop-color="#F25929"/>
<stop offset="1" stop-color="#A3C8F5"/>
</linearGradient>
<linearGradient id="paint6_linear_228:909" x1="312.2" y1="243" x2="336.4" y2="263.2" gradientUnits="userSpaceOnUse">
<stop stop-color="white"/>
<stop offset="0.630208" stop-color="#F25929"/>
<stop offset="1" stop-color="#A3C8F5"/>
</linearGradient>
<linearGradient id="paint7_linear_228:909" x1="-2.95714" y1="208" x2="36.8" y2="241.186" gradientUnits="userSpaceOnUse">
<stop stop-color="white"/>
<stop offset="0.630208" stop-color="#F25929"/>
<stop offset="1" stop-color="#A3C8F5"/>
</linearGradient>
<clipPath id="clip0_228:909">
<rect width="47" height="42" fill="white" transform="translate(83.0332 128.768) rotate(-45)"/>
</clipPath>
<clipPath id="clip1_228:909">
<rect width="47" height="42" fill="white" transform="translate(174 367)"/>
</clipPath>
</defs>
</svg>
