<svg width="572" height="607" viewBox="0 0 572 607" fill="none" xmlns="http://www.w3.org/2000/svg">
<g clip-path="url(#clip0_331:1191)">
<path d="M235.382 307.663C235.382 340.058 261.644 366.319 294.039 366.319C326.434 366.319 352.695 340.058 352.695 307.663C352.695 275.268 326.434 249.006 294.039 249.006C261.644 249.006 235.382 275.268 235.382 307.663Z" fill="white"/>
<path d="M213.553 292.268C221.915 225.343 283.164 177.697 350.089 186.06C417.014 194.423 464.682 255.671 456.297 322.596C447.912 389.521 386.686 437.167 319.761 428.805C252.836 420.442 205.195 359.194 213.553 292.268ZM455.267 322.469C463.575 256.098 416.31 195.353 349.939 187.062C283.568 178.771 222.824 226.019 214.533 292.39C206.242 358.761 253.517 419.517 319.888 427.824C386.26 436.132 447.004 388.84 455.267 322.469Z" fill="black"/>
<path d="M93.5478 277.271C106.901 170.409 204.702 94.3343 311.564 107.687C418.426 121.04 494.5 218.836 481.147 325.698C467.794 432.56 369.999 508.64 263.137 495.287C156.275 481.934 80.2004 384.133 93.5478 277.271ZM480.123 325.576C493.415 219.268 417.722 121.971 311.414 108.69C205.106 95.4088 107.815 171.09 94.5336 277.398C81.2527 383.706 156.951 480.992 263.264 494.284C369.578 507.576 466.864 431.884 480.145 325.576L480.123 325.576Z" fill="black"/>
<path d="M471.972 384.276C463.937 384.276 457.424 377.874 457.424 369.977C457.424 362.08 463.937 355.678 471.972 355.678C480.006 355.678 486.52 362.08 486.52 369.977C486.52 377.874 480.006 384.276 471.972 384.276Z" fill="black"/>
<path d="M360.66 71.2103C352.625 71.2103 346.112 64.8083 346.112 56.911C346.112 49.0138 352.625 42.6118 360.66 42.6118C368.695 42.6118 375.208 49.0138 375.208 56.911C375.208 64.8083 368.695 71.2103 360.66 71.2103Z" fill="black"/>
<path d="M45.8544 473.848C37.8198 473.848 31.3065 467.446 31.3065 459.548C31.3065 451.651 37.8198 445.249 45.8544 445.249C53.889 445.249 60.4023 451.651 60.4023 459.548C60.4023 467.446 53.889 473.848 45.8544 473.848Z" fill="black"/>
<path d="M554.587 196.437C546.552 196.437 540.039 190.035 540.039 182.137C540.039 174.24 546.552 167.838 554.587 167.838C562.621 167.838 569.135 174.24 569.135 182.137C569.135 190.035 562.621 196.437 554.587 196.437Z" fill="black"/>
<path d="M89.3716 276.75C106.54 139.3 232.343 41.4432 369.793 58.6176C507.243 75.7919 605.1 201.589 587.931 339.039C570.762 476.489 444.959 574.346 307.504 557.172C170.048 539.997 72.2028 414.206 89.3716 276.75ZM586.923 338.912C604.031 202.016 506.568 76.7279 369.671 59.62C232.775 42.5122 107.482 139.981 90.3794 276.877C73.2771 413.774 170.735 539.067 307.631 556.169C444.527 573.272 569.821 475.814 586.923 338.912V338.912Z" fill="black"/>
<path d="M2.38076 265.884C12.4328 185.451 53.2004 113.752 117.179 63.9843C181.158 14.217 260.688 -7.65938 341.115 2.39267C421.543 12.4447 493.248 53.2068 543.015 117.185C592.782 181.164 614.659 260.695 604.607 341.122C594.555 421.55 553.792 493.254 489.814 543.021C425.835 592.789 346.305 614.665 265.872 604.613C185.439 594.561 113.74 553.799 63.9724 489.82C14.205 425.842 -7.66575 346.311 2.38076 265.884ZM603.604 341C624.279 175.515 506.473 24.0697 340.988 3.39514C175.503 -17.2794 24.0633 100.526 3.38878 266.006C-17.2858 431.485 100.52 582.936 265.999 603.611C431.479 624.285 582.93 506.469 603.604 341V341Z" fill="black"/>
<path d="M265.098 216.764C259.411 216.764 254.802 212.236 254.802 206.65C254.802 201.064 259.411 196.536 265.098 196.536C270.785 196.536 275.395 201.064 275.395 206.65C275.395 212.236 270.785 216.764 265.098 216.764Z" fill="black"/>
<path d="M49.4301 148.933C43.7435 148.933 39.1336 144.405 39.1336 138.819C39.1336 133.233 43.7435 128.705 49.4301 128.705C55.1167 128.705 59.7266 133.233 59.7266 138.819C59.7266 144.405 55.1167 148.933 49.4301 148.933Z" fill="black"/>
<path d="M88.2237 328.071C77.3 328.071 68.4446 319.066 68.4446 307.959C68.4446 296.851 77.3 287.847 88.2237 287.847C99.1475 287.847 108.003 296.851 108.003 307.959C108.003 319.066 99.1475 328.071 88.2237 328.071Z" fill="black"/>
<path d="M71.3841 297.396C71.0022 298.061 70.7697 298.509 70.5372 298.957C52.5848 300.369 39.9301 303.94 39.9301 307.959C39.9301 313.306 61.5194 317.641 88.2238 317.641C114.928 317.641 136.518 313.306 136.518 307.959C136.518 303.857 123.896 300.369 105.911 298.957C105.911 298.957 105.462 298.077 105.064 297.396C134.525 298.609 156.446 302.877 156.446 307.959C156.446 313.987 125.906 318.87 88.2238 318.87C50.5421 318.87 20.0014 313.987 20.0014 307.959C20.0014 302.877 41.8897 298.575 71.3841 297.396Z" fill="white"/>
</g>
<circle cx="294.039" cy="307.663" r="58.6565" fill="black"/>
<path d="M305.102 290.925C305.102 296.382 305.164 301.84 305.081 307.296C305.02 311.318 304.326 315.245 302.526 318.899C300.173 323.677 296.346 326.585 291.18 327.775C289.011 328.274 286.809 328.416 284.595 328.318C281.943 328.202 279.371 327.692 276.965 326.511C273.636 324.876 271.316 322.282 269.781 318.944C268.798 316.805 268.208 314.553 267.852 312.232C267.592 310.584 267.452 308.919 267.431 307.251C267.412 304.644 267.385 302.038 267.383 299.433C267.376 291.08 267.376 282.727 267.383 274.374C267.38 273.895 267.38 273.895 267.842 273.895H275.037C275.491 273.895 275.492 273.895 275.492 274.347C275.492 285.261 275.477 296.175 275.504 307.089C275.51 309.84 275.866 312.554 276.876 315.143C277.754 317.394 279.077 319.293 281.223 320.513C282.506 321.241 283.896 321.59 285.369 321.677C287.024 321.778 288.63 321.588 290.179 320.997C292.557 320.088 294.168 318.366 295.25 316.106C296.012 314.49 296.503 312.759 296.703 310.982C296.847 309.774 296.925 308.555 296.984 307.337C297.037 306.234 297.039 305.126 297.04 304.019C297.043 294.155 297.043 284.291 297.04 274.427C297.04 273.891 297.04 273.891 297.588 273.891H304.645C305.1 273.891 305.1 273.891 305.1 274.342C305.1 279.868 305.1 285.394 305.1 290.921L305.102 290.925Z" fill="white"/>
<path d="M320.651 339.444C320.501 339.434 320.353 339.417 320.204 339.417C317.782 339.417 315.36 339.408 312.938 339.425C312.577 339.425 312.501 339.316 312.501 338.975C312.509 328.047 312.507 317.119 312.496 306.191C312.488 303.311 312.102 300.473 310.974 297.787C310.071 295.635 308.723 293.846 306.632 292.712C305.419 292.055 304.116 291.732 302.74 291.625C301.048 291.5 299.406 291.693 297.825 292.297C295.371 293.233 293.738 295.026 292.662 297.371C291.863 299.113 291.445 300.958 291.209 302.853C290.958 304.86 290.952 306.875 290.953 308.891C290.953 318.884 290.953 328.877 290.953 338.87C290.953 339.413 290.953 339.413 290.409 339.413C288.045 339.413 285.681 339.408 283.316 339.42C282.996 339.42 282.881 339.352 282.881 339.005C282.891 327.974 282.843 316.941 282.919 305.91C282.947 301.901 283.69 297.991 285.5 294.347C287.804 289.71 291.506 286.832 296.513 285.597C298.813 285.029 301.154 284.884 303.506 284.99C306.137 285.108 308.686 285.63 311.068 286.806C314.429 288.465 316.751 291.104 318.277 294.487C319.226 296.591 319.8 298.8 320.147 301.075C320.406 302.736 320.549 304.413 320.573 306.094C320.587 306.204 320.613 306.313 320.651 306.417V339.444Z" fill="white"/>
<defs>
<clipPath id="clip0_331:1191">
<rect width="607" height="607" fill="white" transform="translate(607) rotate(90)"/>
</clipPath>
</defs>
</svg>
