<svg width="207" height="180" viewBox="0 0 207 180" fill="none" xmlns="http://www.w3.org/2000/svg">
<g clip-path="url(#clip0_126:2787)">
<path d="M140.225 126.714C160.509 106.438 160.509 73.5642 140.225 53.2883C119.942 33.0125 87.0564 33.0125 66.7731 53.2883C46.4898 73.5642 46.4898 106.438 66.7731 126.714C87.0564 146.989 119.942 146.989 140.225 126.714Z" stroke="black" stroke-miterlimit="10"/>
<path d="M160.118 142.559C188.33 112.189 200.604 77.7347 187.534 65.602C174.463 53.4692 140.998 68.2528 112.786 98.622C84.575 128.991 72.3007 163.446 85.371 175.578C98.4414 187.711 131.907 172.928 160.118 142.559Z" stroke="black" stroke-miterlimit="10"/>
<path d="M51.315 42.3565C57.4518 36.222 57.4518 26.2761 51.315 20.1416C45.1783 14.0071 35.2287 14.0071 29.092 20.1416C22.9553 26.2761 22.9553 36.222 29.092 42.3564C35.2287 48.4909 45.1783 48.4909 51.315 42.3565Z" stroke="black" stroke-miterlimit="10"/>
<path d="M94.2296 81.4026C122.441 51.0335 134.715 16.5788 121.645 4.4461C108.575 -7.68663 75.1092 7.09693 46.8977 37.4661C18.6863 67.8353 6.41202 102.29 19.4824 114.423C32.5527 126.555 66.0182 111.772 94.2296 81.4026Z" stroke="black" stroke-miterlimit="10"/>
<path d="M51.5727 128.28C33.9755 134.931 18.3029 134.656 8.83824 125.87C-7.87966 110.35 0.445324 73.558 26.9034 39.6705" stroke="black" stroke-miterlimit="10"/>
<path d="M48.2818 131.989L51.5688 128.28L47.2969 127.635" stroke="black" stroke-miterlimit="10"/>
<path d="M175.548 161.799C182.756 156.968 184.682 147.21 179.849 140.004C175.016 132.798 165.255 130.873 158.046 135.704C150.838 140.536 148.912 150.293 153.745 157.499C158.578 164.705 168.339 166.63 175.548 161.799Z" stroke="black" stroke-miterlimit="10"/>
<path d="M155.432 51.7159C173.029 45.0651 188.701 45.3443 198.166 54.1264C214.888 69.6498 206.555 106.461 180.074 140.36" stroke="black" stroke-miterlimit="10"/>
<path d="M158.715 48.0076L155.432 51.7158L159.7 52.3609" stroke="black" stroke-miterlimit="10"/>
<g clip-path="url(#clip1_126:2787)">
<path d="M40.6529 8.9552C51.7171 8.95709 60.6834 18.1775 60.6852 29.5513C60.6871 40.9307 51.7041 50.1587 40.6326 50.1492C29.5684 50.1398 20.6039 40.9118 20.6113 29.5418C20.6187 18.1662 29.5887 8.95331 40.6529 8.9552Z" fill="#FF5733"/>
<path d="M47.1017 40.7762C47.0685 40.7762 47.0426 40.7762 47.0167 40.7762C46.1979 40.7762 45.3791 40.7743 44.5603 40.7781C44.4882 40.7781 44.4771 40.7555 44.4771 40.6895C44.4789 37.1257 44.4789 33.5601 44.4771 29.9964C44.4771 29.2195 44.4013 28.4502 44.1906 27.6998C44.0335 27.1379 43.8024 26.6137 43.4365 26.1574C43.1001 25.7388 42.6823 25.4352 42.1814 25.2542C42.1685 25.2504 42.1556 25.2467 42.1426 25.2429C42.1389 25.241 42.1334 25.2429 42.1204 25.2448C42.1204 25.2712 42.1204 25.2994 42.1204 25.3296C42.1204 26.872 42.1223 28.4144 42.1186 29.9568C42.1168 30.513 42.0705 31.0674 41.9892 31.618C41.8876 32.3081 41.7249 32.9831 41.4624 33.6299C41.1722 34.3483 40.7749 34.9932 40.2296 35.5419C39.6769 36.0981 39.0263 36.4978 38.2925 36.7543C38.0522 36.8372 37.8064 36.9032 37.555 36.9787C37.555 38.2363 37.555 39.5016 37.555 40.7724C36.6771 40.7724 35.8065 40.7724 34.9285 40.7724C34.9285 39.543 34.9285 38.3155 34.9285 37.0843C34.8121 37.0654 34.6994 37.0503 34.5866 37.0296C33.5146 36.8448 32.559 36.4149 31.7771 35.6229C31.2393 35.078 30.8566 34.4294 30.5776 33.7147C30.3613 33.1566 30.2153 32.5777 30.1173 31.9857C30.0175 31.3804 29.9639 30.7695 29.9565 30.1567C29.9528 29.8625 29.9473 29.5684 29.9473 29.2742C29.9473 25.9651 29.9473 22.6578 29.9473 19.3486C29.9473 19.3165 29.9473 19.2864 29.9473 19.2487C30.8234 19.2487 31.6939 19.2487 32.5738 19.2487C32.5738 19.2807 32.5738 19.3109 32.5738 19.3429C32.5738 22.8953 32.5738 26.4478 32.5738 30.0021C32.5738 30.7657 32.6458 31.5218 32.8436 32.261C32.9896 32.8078 33.2059 33.3225 33.546 33.7751C33.8898 34.2333 34.326 34.567 34.862 34.7594C34.8805 34.7669 34.899 34.7707 34.9267 34.7801C34.9267 34.7462 34.9267 34.7179 34.9267 34.6915C34.9267 33.1849 34.9212 31.6802 34.9285 30.1736C34.9341 29.212 35.0302 28.2598 35.276 27.3283C35.4923 26.51 35.8176 25.7426 36.3185 25.0619C36.9673 24.1794 37.8175 23.5798 38.8396 23.2348C39.0282 23.1706 39.2204 23.1197 39.4126 23.0726C39.4829 23.0556 39.494 23.0273 39.494 22.9632C39.4921 21.7565 39.4921 20.5497 39.4921 19.3411C39.4921 19.3128 39.4921 19.2826 39.4921 19.2487C40.3682 19.2487 41.2369 19.2487 42.1149 19.2487C42.1149 19.2788 42.1149 19.3071 42.1149 19.3354C42.1149 20.5101 42.1149 21.6848 42.1149 22.8614C42.1149 22.9085 42.1149 22.9368 42.1777 22.9463C43.0372 23.0575 43.845 23.3177 44.5713 23.8136C45.2645 24.2869 45.7876 24.9148 46.1776 25.6634C46.501 26.2856 46.7099 26.9474 46.854 27.6338C46.9539 28.1127 47.0204 28.5973 47.0518 29.0857C47.0777 29.4873 47.0943 29.8927 47.0943 30.2943C47.098 33.7562 47.0962 37.2181 47.0962 40.6782C47.1017 40.7083 47.1017 40.7385 47.1017 40.7762ZM39.4995 25.4277C39.4718 25.439 39.4533 25.4428 39.4404 25.4522C39.2722 25.5691 39.0947 25.6728 38.9395 25.8048C38.5088 26.1706 38.2223 26.642 38.0153 27.168C37.69 27.9958 37.5717 28.8651 37.5643 29.7475C37.5513 31.337 37.5606 32.9285 37.5587 34.518C37.5587 34.5406 37.5587 34.5614 37.5587 34.584C37.5698 34.584 37.5754 34.5859 37.5791 34.584C37.5939 34.5783 37.6068 34.5708 37.6216 34.5633C37.8951 34.4124 38.1391 34.222 38.3517 33.99C38.7491 33.5564 39.0004 33.0397 39.1723 32.4797C39.4089 31.7123 39.494 30.9222 39.4976 30.1209C39.5032 28.5822 39.4995 27.0455 39.4995 25.5069C39.4995 25.4842 39.4995 25.4597 39.4995 25.4277Z" fill="white"/>
<path d="M46.1101 22.3598C45.9586 22.1449 45.8181 21.9469 45.6776 21.7451C45.7479 21.7225 45.8273 21.698 45.9068 21.6697C46.2839 21.5377 46.6147 21.3341 46.868 21.0135C47.0824 20.7458 47.1766 20.4271 47.2247 20.0915C47.2339 20.0292 47.2413 19.9651 47.2487 19.8935C47.2191 19.8916 47.197 19.8897 47.1729 19.8897C46.7238 19.8897 46.2746 19.8916 45.8236 19.8878C45.7608 19.8878 45.7442 19.9086 45.746 19.9689C45.7497 20.2084 45.7479 20.446 45.7479 20.6892C45.5334 20.6892 45.3079 20.6892 45.0898 20.6892C45.0898 20.2121 45.0898 19.7389 45.0898 19.2712C45.8754 19.2958 46.6517 19.2788 47.4298 19.2807C47.5038 19.2807 47.5796 19.2562 47.6535 19.2486C47.6757 19.2467 47.7053 19.2505 47.7219 19.2656C47.8088 19.341 47.8919 19.4202 47.9733 19.5013C47.9862 19.5126 47.9991 19.5352 47.9954 19.5503C47.9714 19.688 47.94 19.8256 47.9197 19.9632C47.8494 20.4384 47.7496 20.9023 47.4835 21.3133C47.2469 21.6791 46.9216 21.9393 46.5482 22.143C46.4022 22.2259 46.2488 22.2919 46.1101 22.3598Z" fill="white"/>
<path d="M48.8623 22.2467C48.7994 22.0072 48.7366 21.7734 48.6719 21.5339C49.8992 21.4321 50.7753 20.8514 51.1819 19.6257C51.2004 19.6427 51.2096 19.6484 51.2152 19.6559C51.3483 19.8237 51.5091 19.9614 51.6791 20.0877C51.7032 20.1047 51.7253 20.116 51.7069 20.1575C51.5165 20.5647 51.2965 20.9532 50.9749 21.2681C50.5886 21.6471 50.1302 21.8978 49.6182 22.0468C49.3705 22.1185 49.1192 22.1788 48.8623 22.2467Z" fill="white"/>
<path d="M48.6348 19.752C48.7771 19.5729 48.912 19.4051 49.0525 19.2297C49.4092 19.439 49.7493 19.6653 50.0506 19.9576C49.9083 20.148 49.7696 20.3366 49.6236 20.5327C49.3316 20.2234 49.0137 19.9576 48.6348 19.752Z" fill="white"/>
</g>
<g clip-path="url(#clip2_126:2787)">
<path d="M167.003 128.06C178.067 128.062 187.033 137.282 187.035 148.656C187.037 160.035 178.054 169.263 166.982 169.254C155.918 169.244 146.954 160.016 146.961 148.646C146.968 137.271 155.938 128.058 167.003 128.06Z" fill="#FF5733"/>
<path d="M173.451 159.881C173.418 159.881 173.392 159.881 173.366 159.881C172.547 159.881 171.729 159.879 170.91 159.882C170.838 159.882 170.827 159.86 170.827 159.794C170.829 156.23 170.829 152.664 170.827 149.101C170.827 148.324 170.751 147.555 170.54 146.804C170.383 146.242 170.152 145.718 169.786 145.262C169.45 144.843 169.032 144.54 168.531 144.359C168.518 144.355 168.505 144.351 168.492 144.347C168.489 144.345 168.483 144.347 168.47 144.349C168.47 144.376 168.47 144.404 168.47 144.434C168.47 145.976 168.472 147.519 168.468 149.061C168.466 149.617 168.42 150.172 168.339 150.722C168.237 151.412 168.075 152.088 167.812 152.734C167.522 153.453 167.124 154.098 166.579 154.646C166.027 155.202 165.376 155.602 164.642 155.859C164.402 155.942 164.156 156.008 163.905 156.083C163.905 157.341 163.905 158.606 163.905 159.877C163.027 159.877 162.156 159.877 161.278 159.877C161.278 158.647 161.278 157.42 161.278 156.189C161.162 156.17 161.049 156.155 160.936 156.134C159.864 155.949 158.909 155.519 158.127 154.727C157.589 154.182 157.206 153.534 156.927 152.819C156.711 152.261 156.565 151.682 156.467 151.09C156.367 150.485 156.314 149.874 156.306 149.261C156.302 148.967 156.297 148.673 156.297 148.379C156.297 145.069 156.297 141.762 156.297 138.453C156.297 138.421 156.297 138.391 156.297 138.353C157.173 138.353 158.044 138.353 158.923 138.353C158.923 138.385 158.923 138.415 158.923 138.447C158.923 142 158.923 145.552 158.923 149.106C158.923 149.87 158.995 150.626 159.193 151.365C159.339 151.912 159.556 152.427 159.896 152.879C160.239 153.338 160.676 153.671 161.212 153.864C161.23 153.871 161.249 153.875 161.276 153.884C161.276 153.851 161.276 153.822 161.276 153.796C161.276 152.289 161.271 150.785 161.278 149.278C161.284 148.316 161.38 147.364 161.626 146.433C161.842 145.614 162.167 144.847 162.668 144.166C163.317 143.284 164.167 142.684 165.189 142.339C165.378 142.275 165.57 142.224 165.762 142.177C165.832 142.16 165.844 142.132 165.844 142.068C165.842 140.861 165.842 139.654 165.842 138.445C165.842 138.417 165.842 138.387 165.842 138.353C166.718 138.353 167.587 138.353 168.465 138.353C168.465 138.383 168.465 138.411 168.465 138.44C168.465 139.614 168.465 140.789 168.465 141.966C168.465 142.013 168.465 142.041 168.527 142.051C169.387 142.162 170.195 142.422 170.921 142.918C171.614 143.391 172.137 144.019 172.527 144.768C172.851 145.39 173.059 146.052 173.204 146.738C173.303 147.217 173.37 147.702 173.401 148.19C173.427 148.592 173.444 148.997 173.444 149.399C173.448 152.861 173.446 156.322 173.446 159.783C173.451 159.813 173.451 159.843 173.451 159.881ZM165.849 144.532C165.821 144.543 165.803 144.547 165.79 144.557C165.622 144.673 165.444 144.777 165.289 144.909C164.858 145.275 164.572 145.746 164.365 146.272C164.04 147.1 163.921 147.969 163.914 148.852C163.901 150.441 163.91 152.033 163.908 153.622C163.908 153.645 163.908 153.666 163.908 153.688C163.919 153.688 163.925 153.69 163.929 153.688C163.943 153.683 163.956 153.675 163.971 153.668C164.245 153.517 164.489 153.326 164.701 153.094C165.099 152.661 165.35 152.144 165.522 151.584C165.759 150.817 165.844 150.027 165.847 149.225C165.853 147.687 165.849 146.15 165.849 144.611C165.849 144.589 165.849 144.564 165.849 144.532Z" fill="white"/>
<path d="M172.46 141.464C172.308 141.249 172.168 141.051 172.027 140.849C172.097 140.827 172.177 140.802 172.256 140.774C172.633 140.642 172.964 140.438 173.218 140.118C173.432 139.85 173.526 139.531 173.574 139.196C173.584 139.134 173.591 139.07 173.598 138.998C173.569 138.996 173.547 138.994 173.523 138.994C173.073 138.994 172.624 138.996 172.173 138.992C172.11 138.992 172.094 139.013 172.096 139.073C172.099 139.313 172.097 139.55 172.097 139.794C171.883 139.794 171.658 139.794 171.439 139.794C171.439 139.317 171.439 138.843 171.439 138.376C172.225 138.4 173.001 138.383 173.779 138.385C173.853 138.385 173.929 138.361 174.003 138.353C174.025 138.351 174.055 138.355 174.071 138.37C174.158 138.445 174.242 138.525 174.323 138.606C174.336 138.617 174.349 138.64 174.345 138.655C174.321 138.792 174.29 138.93 174.269 139.068C174.199 139.543 174.099 140.007 173.833 140.418C173.596 140.783 173.271 141.044 172.898 141.247C172.752 141.33 172.598 141.396 172.46 141.464Z" fill="white"/>
<path d="M175.212 141.351C175.149 141.112 175.086 140.878 175.021 140.638C176.249 140.536 177.125 139.956 177.532 138.73C177.55 138.747 177.559 138.753 177.565 138.76C177.698 138.928 177.859 139.066 178.029 139.192C178.053 139.209 178.075 139.22 178.056 139.262C177.866 139.669 177.646 140.058 177.325 140.372C176.938 140.751 176.48 141.002 175.968 141.151C175.72 141.223 175.469 141.283 175.212 141.351Z" fill="white"/>
<path d="M174.984 138.856C175.127 138.677 175.262 138.509 175.402 138.334C175.759 138.543 176.099 138.77 176.4 139.062C176.258 139.252 176.119 139.441 175.973 139.637C175.681 139.328 175.363 139.062 174.984 138.856Z" fill="white"/>
</g>
</g>
<defs>
<clipPath id="clip0_126:2787">
<rect width="207" height="180" fill="white"/>
</clipPath>
<clipPath id="clip1_126:2787">
<rect width="40.0758" height="41.194" fill="white" transform="translate(20.6113 8.9552)"/>
</clipPath>
<clipPath id="clip2_126:2787">
<rect width="40.0758" height="41.194" fill="white" transform="translate(146.961 128.06)"/>
</clipPath>
</defs>
</svg>
