<svg width="181" height="180" viewBox="0 0 181 180" fill="none" xmlns="http://www.w3.org/2000/svg">
<g clip-path="url(#clip0_126:2827)">
<path d="M97.9411 119.42C113.821 119.42 126.695 106.547 126.695 90.6667C126.695 74.7865 113.821 61.9131 97.9411 61.9131C82.0609 61.9131 69.1875 74.7865 69.1875 90.6667C69.1875 106.547 82.0609 119.42 97.9411 119.42Z" fill="#EC008C"/>
<path d="M99.6256 83.9294C99.6256 84.0592 99.6256 84.1281 99.6256 84.197C99.6256 86.4569 99.6547 88.7195 99.615 90.9794C99.5805 92.8763 99.2547 94.7256 98.3857 96.4424C97.3153 98.5539 95.6065 99.8601 93.3174 100.416C93.0763 100.475 93.0763 100.472 93.0763 100.718C93.0763 102.35 93.0763 103.982 93.0763 105.612C93.0763 105.821 93.0763 105.821 92.867 105.821C91.7622 105.821 90.6601 105.821 89.5553 105.821C89.3487 105.821 89.3487 105.821 89.3487 105.609C89.3487 104.03 89.3487 102.454 89.3487 100.875C89.3487 100.634 89.3487 100.642 89.1102 100.607C86.4132 100.215 84.4261 98.848 83.279 96.3364C82.8312 95.3561 82.5636 94.3255 82.402 93.2631C82.2854 92.4948 82.2139 91.7212 82.206 90.9449C82.198 90.1395 82.1848 89.3368 82.1848 88.5314C82.1821 84.2765 82.1848 80.0216 82.1848 75.7667C82.1848 75.5494 82.1848 75.5494 82.402 75.5494C83.5068 75.5494 84.6089 75.5494 85.7137 75.5494C85.9363 75.5494 85.9363 75.5494 85.9363 75.7799C85.9363 80.819 85.9283 85.8555 85.9416 90.8946C85.9442 92.1663 86.1111 93.4194 86.5774 94.617C86.9828 95.6555 87.5974 96.5325 88.5936 97.0941C88.7791 97.1974 88.9778 97.2769 89.1712 97.3644C89.2162 97.3856 89.2692 97.3909 89.3487 97.4094C89.3487 97.3061 89.3487 97.2266 89.3487 97.1498C89.3487 94.8951 89.3222 92.6379 89.3593 90.3833C89.3884 88.6559 89.6719 86.9629 90.3819 85.368C91.4284 83.0127 93.2088 81.537 95.7178 80.9436C95.8767 80.9065 95.9059 80.8349 95.9059 80.6919C95.9032 79.0705 95.9032 77.449 95.9032 75.8303C95.9032 75.5097 95.8794 75.5521 96.1893 75.5521C97.2729 75.5494 98.3539 75.5547 99.4375 75.5494C99.5911 75.5494 99.6362 75.5918 99.6335 75.7455C99.6282 77.3351 99.6309 78.9221 99.6309 80.5117C99.6309 80.7449 99.6335 80.7369 99.8667 80.7687C102.58 81.1582 104.569 82.5385 105.711 85.0633C106.183 86.1045 106.469 87.1961 106.601 88.3274C106.684 89.0347 106.726 89.7448 106.768 90.4574C106.795 90.8919 106.795 91.3291 106.795 91.7662C106.797 96.3788 106.795 100.989 106.795 105.601C106.795 105.821 106.795 105.821 106.58 105.821C105.47 105.821 104.363 105.821 103.253 105.821C103.043 105.821 103.043 105.821 103.043 105.612C103.043 100.567 103.051 95.5257 103.038 90.4813C103.035 89.146 102.855 87.8293 102.333 86.5841C101.912 85.5853 101.284 84.756 100.309 84.2367C100.097 84.1255 99.8799 84.0433 99.6256 83.9294ZM93.0869 97.1604C93.23 97.0809 93.336 97.0252 93.4393 96.959C94.356 96.3761 94.9229 95.523 95.2965 94.5269C95.7549 93.2976 95.8847 92.0126 95.8953 90.7171C95.9138 88.6214 95.9006 86.5258 95.9006 84.4301C95.9006 84.3692 95.89 84.3083 95.8847 84.2341C95.8343 84.25 95.8025 84.2526 95.7787 84.2685C95.633 84.3559 95.482 84.4381 95.3442 84.5388C94.4461 85.1878 93.9241 86.0913 93.5824 87.1219C93.2035 88.2664 93.0896 89.4507 93.0816 90.6456C93.0657 92.7412 93.0763 94.8369 93.0763 96.9325C93.0737 96.9934 93.079 97.0544 93.0869 97.1604Z" fill="white"/>
<path d="M102.97 79.1684L103.1 79.1181C103.834 78.8293 104.371 78.469 104.695 78.0477C104.999 77.653 105.169 77.1098 105.206 76.4342H102.029V75.9097H105.749V76.0262C105.746 77.0145 105.564 77.7775 105.206 78.2914C104.848 78.8054 104.226 79.2479 103.357 79.6135L103.264 79.6532L102.97 79.1684Z" fill="white"/>
<path d="M106.917 78.6863L107.039 78.6439C107.38 78.5247 107.635 78.3948 107.799 78.2597C107.955 78.1325 108.067 77.9736 108.125 77.7908C108.189 77.5974 108.22 77.3563 108.22 77.0754C108.22 76.9986 108.218 76.9138 108.215 76.8185L108.212 76.6992H108.737L108.742 76.8105C108.766 77.4834 108.663 77.9895 108.435 78.3154C108.207 78.6412 107.802 78.9062 107.232 79.1022L107.134 79.1367L106.917 78.6863ZM108.967 77.4464L109.055 77.3457C109.283 77.086 109.439 76.8132 109.519 76.5323H106.869V76.021H110.138L110.117 76.1561C110.067 76.4687 109.995 76.739 109.9 76.9536C109.805 77.1708 109.659 77.404 109.46 77.6477L109.394 77.7298L108.967 77.4464Z" fill="white"/>
<path d="M110.932 79.0201L111.077 78.983C111.997 78.7499 112.701 78.4373 113.178 78.0531C113.653 77.669 114.063 77.0914 114.4 76.3284L114.45 76.2171L114.94 76.4661L114.892 76.5668C114.522 77.3775 114.095 78.0028 113.629 78.424C113.16 78.8479 112.373 79.2082 111.289 79.4997L111.199 79.5235L110.932 79.0201ZM112.312 76.898C111.986 76.5854 111.586 76.2833 111.128 75.9946L111.008 75.9204L111.374 75.515L111.459 75.568C111.888 75.8462 112.304 76.1509 112.688 76.4767L112.781 76.5536L112.402 76.9801L112.312 76.898Z" fill="white"/>
</g>
<circle cx="97.9421" cy="90.6667" r="82.1667" stroke="black"/>
<circle cx="97.9414" cy="90.6667" r="46.2246" stroke="black"/>
<path d="M147.5 49C161.031 49 172 38.031 172 24.5C172 10.969 161.031 0 147.5 0C133.969 0 123 10.969 123 24.5C123 38.031 133.969 49 147.5 49Z" fill="#EC008C"/>
<path d="M148.936 18.7593C148.936 18.8699 148.936 18.9286 148.936 18.9873C148.936 20.9129 148.961 22.8408 148.927 24.7664C148.898 26.3827 148.62 27.9584 147.879 29.4212C146.967 31.2204 145.511 32.3333 143.561 32.8074C143.356 32.857 143.356 32.8548 143.356 33.0647C143.356 34.4553 143.356 35.8459 143.356 37.2342C143.356 37.4125 143.356 37.4125 143.177 37.4125C142.236 37.4125 141.297 37.4125 140.355 37.4125C140.179 37.4125 140.179 37.4125 140.179 37.2319C140.179 35.8865 140.179 34.5433 140.179 33.1979C140.179 32.9925 140.179 32.9992 139.976 32.9699C137.678 32.6358 135.985 31.4709 135.008 29.3309C134.626 28.4956 134.398 27.6175 134.26 26.7123C134.161 26.0576 134.1 25.3984 134.093 24.737C134.087 24.0507 134.075 23.3667 134.075 22.6805C134.073 19.055 134.075 15.4296 134.075 11.8041C134.075 11.619 134.075 11.619 134.26 11.619C135.202 11.619 136.141 11.619 137.082 11.619C137.272 11.619 137.272 11.619 137.272 11.8154C137.272 16.1091 137.265 20.4005 137.276 24.6941C137.279 25.7777 137.421 26.8455 137.818 27.8658C138.163 28.7507 138.687 29.4979 139.536 29.9765C139.694 30.0646 139.863 30.1323 140.028 30.2068C140.066 30.2248 140.112 30.2294 140.179 30.2452C140.179 30.1571 140.179 30.0894 140.179 30.0239C140.179 28.1028 140.157 26.1795 140.188 24.2584C140.213 22.7866 140.455 21.3441 141.06 19.9851C141.951 17.9782 143.468 16.7208 145.606 16.2152C145.742 16.1836 145.767 16.1226 145.767 16.0007C145.764 14.6192 145.764 13.2376 145.764 11.8583C145.764 11.5852 145.744 11.6213 146.008 11.6213C146.931 11.619 147.852 11.6235 148.776 11.619C148.907 11.619 148.945 11.6551 148.943 11.7861C148.938 13.1405 148.94 14.4927 148.94 15.8472C148.94 16.0459 148.943 16.0391 149.141 16.0662C151.453 16.398 153.148 17.5741 154.121 19.7255C154.523 20.6127 154.767 21.5427 154.88 22.5067C154.95 23.1094 154.986 23.7144 155.022 24.3216C155.045 24.6919 155.045 25.0643 155.045 25.4368C155.047 29.367 155.045 33.295 155.045 37.2252C155.045 37.4125 155.045 37.4125 154.862 37.4125C153.916 37.4125 152.972 37.4125 152.026 37.4125C151.848 37.4125 151.848 37.4125 151.848 37.2342C151.848 32.936 151.855 28.6401 151.844 24.342C151.841 23.2042 151.688 22.0823 151.243 21.0213C150.884 20.1702 150.349 19.4636 149.518 19.0212C149.338 18.9264 149.153 18.8564 148.936 18.7593ZM143.365 30.033C143.486 29.9652 143.577 29.9178 143.665 29.8614C144.446 29.3648 144.929 28.6379 145.247 27.7891C145.638 26.7416 145.748 25.6468 145.757 24.5429C145.773 22.7572 145.762 20.9716 145.762 19.186C145.762 19.134 145.753 19.0821 145.748 19.0189C145.706 19.0325 145.678 19.0347 145.658 19.0483C145.534 19.1227 145.405 19.1927 145.288 19.2785C144.523 19.8316 144.078 20.6014 143.787 21.4795C143.464 22.4547 143.367 23.4638 143.36 24.4819C143.347 26.2675 143.356 28.0532 143.356 29.8388C143.353 29.8907 143.358 29.9427 143.365 30.033Z" fill="white"/>
<path d="M151.784 14.7027L151.894 14.6598C152.52 14.4137 152.978 14.1067 153.253 13.7478C153.513 13.4114 153.657 12.9486 153.689 12.373H150.982V11.926H154.152V12.0254C154.15 12.8674 153.994 13.5175 153.689 13.9555C153.384 14.3934 152.854 14.7704 152.113 15.0819L152.034 15.1158L151.784 14.7027Z" fill="white"/>
<path d="M155.148 14.2919L155.252 14.2557C155.543 14.1542 155.76 14.0435 155.9 13.9284C156.033 13.8201 156.128 13.6846 156.177 13.5288C156.232 13.3641 156.259 13.1586 156.259 12.9193C156.259 12.8539 156.256 12.7816 156.254 12.7004L156.252 12.5988H156.699L156.703 12.6936C156.724 13.267 156.636 13.6982 156.442 13.9758C156.247 14.2535 155.902 14.4792 155.417 14.6463L155.333 14.6756L155.148 14.2919ZM156.895 13.2354L156.97 13.1496C157.164 12.9284 157.297 12.6958 157.365 12.4566H155.107V12.0209H157.893L157.875 12.136C157.832 12.4024 157.771 12.6326 157.69 12.8155C157.609 13.0006 157.485 13.1993 157.315 13.4069L157.259 13.4769L156.895 13.2354Z" fill="white"/>
<path d="M158.568 14.5763L158.693 14.5447C159.476 14.3461 160.076 14.0797 160.483 13.7523C160.887 13.425 161.237 12.9329 161.523 12.2828L161.566 12.1879L161.984 12.4001L161.943 12.4859C161.627 13.1767 161.264 13.7095 160.866 14.0684C160.467 14.4296 159.796 14.7366 158.873 14.9849L158.796 15.0052L158.568 14.5763ZM159.744 12.7681C159.467 12.5017 159.126 12.2444 158.735 11.9983L158.634 11.9351L158.945 11.5897L159.018 11.6349C159.383 11.8719 159.738 12.1315 160.065 12.4092L160.144 12.4746L159.821 12.8381L159.744 12.7681Z" fill="white"/>
<g clip-path="url(#clip1_126:2827)">
<path d="M16.1739 85.2753C25.1065 85.2753 32.3478 78.034 32.3478 69.1014C32.3478 60.1688 25.1065 52.9275 16.1739 52.9275C7.24131 52.9275 0 60.1688 0 69.1014C0 78.034 7.24131 85.2753 16.1739 85.2753Z" fill="#EC008C"/>
<path d="M17.1217 65.3116C17.1217 65.3847 17.1217 65.4234 17.1217 65.4621C17.1217 66.7333 17.1381 68.006 17.1157 69.2772C17.0963 70.3443 16.913 71.3845 16.4242 72.3502C15.8221 73.5379 14.8609 74.2726 13.5733 74.5856C13.4377 74.6184 13.4377 74.6169 13.4377 74.7555C13.4377 75.6735 13.4377 76.5915 13.4377 77.508C13.4377 77.6257 13.4377 77.6257 13.32 77.6257C12.6985 77.6257 12.0786 77.6257 11.4571 77.6257C11.3409 77.6257 11.3409 77.6257 11.3409 77.5065C11.3409 76.6183 11.3409 75.7316 11.3409 74.8434C11.3409 74.7078 11.3409 74.7123 11.2068 74.6929C9.68968 74.4723 8.57198 73.7033 7.92669 72.2906C7.67483 71.7392 7.52432 71.1595 7.43341 70.5619C7.36784 70.1297 7.3276 69.6945 7.32313 69.2579C7.31866 68.8048 7.31121 68.3533 7.31121 67.9002C7.30972 65.5069 7.31121 63.1135 7.31121 60.7201C7.31121 60.5979 7.31121 60.5979 7.43341 60.5979C8.05485 60.5979 8.67481 60.5979 9.29625 60.5979C9.42143 60.5979 9.42143 60.5979 9.42143 60.7276C9.42143 63.5621 9.41696 66.3951 9.42441 69.2296C9.4259 69.9449 9.51979 70.6498 9.78208 71.3234C10.0101 71.9076 10.3558 72.4008 10.9162 72.7168C11.0205 72.7749 11.1323 72.8196 11.2411 72.8688C11.2664 72.8807 11.2962 72.8837 11.3409 72.8941C11.3409 72.836 11.3409 72.7913 11.3409 72.7481C11.3409 71.4799 11.326 70.2102 11.3469 68.9419C11.3633 67.9703 11.5227 67.018 11.9221 66.1208C12.5108 64.796 13.5122 63.9659 14.9235 63.6321C15.0129 63.6112 15.0293 63.571 15.0293 63.4905C15.0278 62.5785 15.0278 61.6664 15.0278 60.7559C15.0278 60.5755 15.0144 60.5994 15.1888 60.5994C15.7983 60.5979 16.4063 60.6009 17.0159 60.5979C17.1023 60.5979 17.1276 60.6217 17.1261 60.7082C17.1232 61.6023 17.1246 62.495 17.1246 63.3892C17.1246 63.5203 17.1261 63.5159 17.2573 63.5337C18.7833 63.7528 19.9025 64.5292 20.5448 65.9495C20.8101 66.5351 20.971 67.1491 21.0455 67.7855C21.0917 68.1834 21.1156 68.5828 21.1394 68.9837C21.1543 69.2281 21.1543 69.474 21.1543 69.7199C21.1558 72.3144 21.1543 74.9075 21.1543 77.502C21.1543 77.6257 21.1543 77.6257 21.0336 77.6257C20.4092 77.6257 19.7863 77.6257 19.1618 77.6257C19.0441 77.6257 19.0441 77.6257 19.0441 77.508C19.0441 74.6705 19.0486 71.8345 19.0411 68.9971C19.0396 68.246 18.9383 67.5053 18.6447 66.8049C18.4078 66.243 18.0546 65.7766 17.5062 65.4845C17.3869 65.4219 17.2647 65.3757 17.1217 65.3116ZM13.4437 72.754C13.5241 72.7093 13.5838 72.678 13.6419 72.6408C14.1575 72.3129 14.4764 71.8331 14.6866 71.2727C14.9444 70.5812 15.0174 69.8584 15.0234 69.1297C15.0338 67.9509 15.0263 66.7721 15.0263 65.5933C15.0263 65.559 15.0204 65.5247 15.0174 65.483C14.9891 65.492 14.9712 65.4934 14.9578 65.5024C14.8758 65.5516 14.7909 65.5978 14.7134 65.6544C14.2082 66.0195 13.9146 66.5277 13.7224 67.1074C13.5092 67.7512 13.4452 68.4174 13.4407 69.0895C13.4318 70.2683 13.4377 71.4471 13.4377 72.6259C13.4362 72.6602 13.4392 72.6944 13.4437 72.754Z" fill="white"/>
<path d="M19.0017 62.6337L19.0747 62.6054C19.4875 62.4429 19.7901 62.2403 19.9719 62.0033C20.1433 61.7813 20.2386 61.4758 20.2595 61.0957H18.4727V60.8007H20.565V60.8662C20.5635 61.4221 20.4607 61.8513 20.2595 62.1404C20.0583 62.4295 19.7081 62.6784 19.2193 62.8841L19.1671 62.9064L19.0017 62.6337Z" fill="white"/>
<path d="M21.2221 62.3624L21.2907 62.3385C21.4829 62.2715 21.626 62.1984 21.7184 62.1224C21.8063 62.0509 21.8689 61.9615 21.9017 61.8587C21.9375 61.7499 21.9554 61.6143 21.9554 61.4563C21.9554 61.4131 21.9539 61.3654 21.9524 61.3117L21.9509 61.2447H22.246L22.2489 61.3073C22.2623 61.6858 22.2042 61.9704 22.0761 62.1537C21.9479 62.337 21.7199 62.4861 21.3995 62.5963L21.3443 62.6157L21.2221 62.3624ZM22.3756 61.6649L22.4248 61.6083C22.5529 61.4622 22.6409 61.3087 22.6856 61.1508H21.1953V60.8632H23.0343L23.0224 60.9392C22.9941 61.115 22.9538 61.267 22.9002 61.3877C22.8465 61.5099 22.7646 61.6411 22.6528 61.7782L22.6155 61.8244L22.3756 61.6649Z" fill="white"/>
<path d="M23.4805 62.5501L23.5624 62.5293C24.0796 62.3981 24.476 62.2223 24.7442 62.0062C25.011 61.7901 25.242 61.4652 25.4312 61.036L25.4596 60.9734L25.7353 61.1135L25.7084 61.1701C25.4998 61.6262 25.2599 61.9779 24.9976 62.2148C24.7338 62.4533 24.2912 62.6559 23.6817 62.8199L23.631 62.8333L23.4805 62.5501ZM24.2569 61.3564C24.0736 61.1806 23.8486 61.0107 23.5907 60.8482L23.5237 60.8065L23.7293 60.5785L23.777 60.6083C24.0185 60.7648 24.2524 60.9362 24.4685 61.1195L24.5207 61.1627L24.3076 61.4026L24.2569 61.3564Z" fill="white"/>
</g>
<g clip-path="url(#clip2_126:2827)">
<path d="M34.5933 158.957C41.2928 158.957 46.7238 153.526 46.7238 146.826C46.7238 140.127 41.2928 134.696 34.5933 134.696C27.8939 134.696 22.4629 140.127 22.4629 146.826C22.4629 153.526 27.8939 158.957 34.5933 158.957Z" fill="#EC008C"/>
<path d="M35.3037 143.984C35.3037 144.039 35.3037 144.068 35.3037 144.097C35.3037 145.05 35.3159 146.005 35.2992 146.958C35.2846 147.758 35.1472 148.538 34.7806 149.263C34.329 150.154 33.6081 150.705 32.6424 150.939C32.5407 150.964 32.5407 150.963 32.5407 151.067C32.5407 151.755 32.5407 152.444 32.5407 153.131C32.5407 153.219 32.5407 153.219 32.4524 153.219C31.9863 153.219 31.5213 153.219 31.0553 153.219C30.9681 153.219 30.9681 153.219 30.9681 153.13C30.9681 152.464 30.9681 151.799 30.9681 151.133C30.9681 151.031 30.9681 151.034 30.8675 151.02C29.7297 150.854 28.8914 150.278 28.4074 149.218C28.2185 148.804 28.1056 148.37 28.0375 147.921C27.9883 147.597 27.9581 147.271 27.9548 146.943C27.9514 146.604 27.9458 146.265 27.9458 145.925C27.9447 144.13 27.9458 142.335 27.9458 140.54C27.9458 140.448 27.9458 140.448 28.0375 140.448C28.5035 140.448 28.9685 140.448 29.4346 140.448C29.5285 140.448 29.5285 140.448 29.5285 140.546C29.5285 142.672 29.5251 144.796 29.5307 146.922C29.5318 147.459 29.6022 147.987 29.799 148.493C29.97 148.931 30.2293 149.301 30.6495 149.538C30.7278 149.581 30.8116 149.615 30.8932 149.652C30.9122 149.661 30.9345 149.663 30.9681 149.671C30.9681 149.627 30.9681 149.594 30.9681 149.561C30.9681 148.61 30.9569 147.658 30.9725 146.707C30.9848 145.978 31.1044 145.264 31.404 144.591C31.8455 143.597 32.5966 142.974 33.655 142.724C33.7221 142.708 33.7344 142.678 33.7344 142.618C33.7333 141.934 33.7333 141.25 33.7333 140.567C33.7333 140.432 33.7232 140.45 33.854 140.45C34.3111 140.448 34.7672 140.451 35.2243 140.448C35.2891 140.448 35.3081 140.466 35.307 140.531C35.3048 141.202 35.3059 141.871 35.3059 142.542C35.3059 142.64 35.307 142.637 35.4054 142.65C36.5499 142.815 37.3893 143.397 37.871 144.462C38.07 144.901 38.1907 145.362 38.2466 145.839C38.2812 146.138 38.2991 146.437 38.317 146.738C38.3282 146.921 38.3282 147.106 38.3282 147.29C38.3293 149.236 38.3282 151.181 38.3282 153.127C38.3282 153.219 38.3282 153.219 38.2376 153.219C37.7693 153.219 37.3021 153.219 36.8338 153.219C36.7455 153.219 36.7455 153.219 36.7455 153.131C36.7455 151.003 36.7488 148.876 36.7433 146.748C36.7421 146.185 36.6661 145.629 36.4459 145.104C36.2682 144.682 36.0033 144.333 35.592 144.113C35.5026 144.066 35.411 144.032 35.3037 143.984ZM32.5452 149.566C32.6055 149.532 32.6502 149.509 32.6938 149.481C33.0805 149.235 33.3197 148.875 33.4773 148.455C33.6707 147.936 33.7255 147.394 33.7299 146.847C33.7377 145.963 33.7322 145.079 33.7322 144.195C33.7322 144.169 33.7277 144.144 33.7255 144.112C33.7042 144.119 33.6908 144.12 33.6807 144.127C33.6193 144.164 33.5556 144.198 33.4974 144.241C33.1185 144.515 32.8984 144.896 32.7542 145.331C32.5943 145.813 32.5463 146.313 32.5429 146.817C32.5362 147.701 32.5407 148.585 32.5407 149.469C32.5396 149.495 32.5418 149.521 32.5452 149.566Z" fill="white"/>
<path d="M36.7151 141.975L36.7699 141.954C37.0795 141.832 37.3064 141.68 37.4428 141.502C37.5713 141.336 37.6428 141.107 37.6585 140.822H36.3184V140.6H37.8876V140.65C37.8865 141.067 37.8094 141.388 37.6585 141.605C37.5076 141.822 37.2449 142.009 36.8783 142.163L36.8392 142.18L36.7151 141.975Z" fill="white"/>
<path d="M38.3795 141.772L38.4309 141.754C38.5751 141.704 38.6824 141.649 38.7517 141.592C38.8176 141.538 38.8646 141.471 38.8892 141.394C38.916 141.312 38.9294 141.211 38.9294 141.092C38.9294 141.06 38.9283 141.024 38.9272 140.984L38.9261 140.934H39.1474L39.1496 140.981C39.1597 141.264 39.1161 141.478 39.0199 141.615C38.9238 141.753 38.7528 141.865 38.5125 141.947L38.4711 141.962L38.3795 141.772ZM39.2446 141.249L39.2815 141.206C39.3776 141.097 39.4435 140.982 39.4771 140.863H38.3594V140.647H39.7386L39.7297 140.704C39.7084 140.836 39.6783 140.95 39.638 141.041C39.5978 141.133 39.5363 141.231 39.4525 141.334L39.4245 141.368L39.2446 141.249Z" fill="white"/>
<path d="M40.0742 141.913L40.1357 141.897C40.5235 141.799 40.8208 141.667 41.022 141.505C41.2221 141.343 41.3953 141.099 41.5373 140.777L41.5585 140.73L41.7653 140.835L41.7452 140.878C41.5887 141.22 41.4088 141.483 41.212 141.661C41.0142 141.84 40.6823 141.992 40.2251 142.115L40.1871 142.125L40.0742 141.913ZM40.6565 141.017C40.5191 140.886 40.3503 140.758 40.1569 140.636L40.1066 140.605L40.2609 140.434L40.2966 140.456C40.4777 140.574 40.6532 140.702 40.8153 140.84L40.8544 140.872L40.6945 141.052L40.6565 141.017Z" fill="white"/>
</g>
<g clip-path="url(#clip3_126:2827)">
<path d="M141.971 179.623C152.393 179.623 160.841 171.175 160.841 160.754C160.841 150.332 152.393 141.884 141.971 141.884C131.55 141.884 123.102 150.332 123.102 160.754C123.102 171.175 131.55 179.623 141.971 179.623Z" fill="#EC008C"/>
<path d="M143.077 156.332C143.077 156.417 143.077 156.463 143.077 156.508C143.077 157.991 143.096 159.476 143.07 160.959C143.048 162.204 142.834 163.417 142.263 164.544C141.561 165.93 140.44 166.787 138.937 167.152C138.779 167.19 138.779 167.188 138.779 167.35C138.779 168.421 138.779 169.492 138.779 170.561C138.779 170.699 138.779 170.699 138.642 170.699C137.917 170.699 137.194 170.699 136.469 170.699C136.333 170.699 136.333 170.699 136.333 170.56C136.333 169.523 136.333 168.489 136.333 167.453C136.333 167.294 136.333 167.3 136.176 167.277C134.407 167.02 133.103 166.123 132.35 164.474C132.056 163.831 131.88 163.155 131.774 162.457C131.698 161.953 131.651 161.446 131.646 160.936C131.64 160.408 131.632 159.881 131.632 159.352C131.63 156.56 131.632 153.768 131.632 150.975C131.632 150.833 131.632 150.833 131.774 150.833C132.499 150.833 133.222 150.833 133.948 150.833C134.094 150.833 134.094 150.833 134.094 150.984C134.094 154.291 134.088 157.596 134.097 160.903C134.099 161.738 134.208 162.56 134.514 163.346C134.78 164.028 135.184 164.603 135.837 164.972C135.959 165.039 136.09 165.092 136.216 165.149C136.246 165.163 136.281 165.166 136.333 165.178C136.333 165.111 136.333 165.059 136.333 165.008C136.333 163.529 136.316 162.047 136.34 160.568C136.359 159.434 136.545 158.323 137.011 157.276C137.698 155.731 138.866 154.762 140.513 154.373C140.617 154.348 140.636 154.301 140.636 154.208C140.634 153.144 140.634 152.079 140.634 151.017C140.634 150.807 140.619 150.835 140.822 150.835C141.533 150.833 142.243 150.836 142.954 150.833C143.055 150.833 143.084 150.861 143.082 150.962C143.079 152.005 143.081 153.046 143.081 154.089C143.081 154.242 143.082 154.237 143.235 154.258C145.016 154.514 146.321 155.419 147.071 157.076C147.38 157.76 147.568 158.476 147.655 159.218C147.709 159.683 147.737 160.149 147.765 160.616C147.782 160.901 147.782 161.188 147.782 161.475C147.784 164.502 147.782 167.527 147.782 170.554C147.782 170.699 147.782 170.699 147.641 170.699C146.913 170.699 146.186 170.699 145.457 170.699C145.32 170.699 145.32 170.699 145.32 170.561C145.32 167.251 145.325 163.942 145.317 160.632C145.315 159.756 145.197 158.892 144.854 158.074C144.578 157.419 144.166 156.875 143.526 156.534C143.387 156.461 143.244 156.407 143.077 156.332ZM138.786 165.015C138.88 164.963 138.95 164.926 139.017 164.883C139.619 164.5 139.991 163.941 140.236 163.287C140.537 162.48 140.622 161.637 140.629 160.787C140.641 159.411 140.633 158.036 140.633 156.661C140.633 156.621 140.626 156.581 140.622 156.532C140.589 156.543 140.568 156.544 140.553 156.555C140.457 156.612 140.358 156.666 140.268 156.732C139.678 157.158 139.336 157.751 139.111 158.427C138.863 159.178 138.788 159.956 138.783 160.74C138.772 162.115 138.779 163.49 138.779 164.866C138.777 164.906 138.781 164.946 138.786 165.015Z" fill="white"/>
<path d="M145.272 153.208L145.357 153.175C145.838 152.985 146.191 152.749 146.403 152.472C146.603 152.213 146.715 151.857 146.739 151.414H144.654V151.069H147.095V151.146C147.094 151.794 146.974 152.295 146.739 152.632C146.504 152.97 146.096 153.26 145.525 153.5L145.465 153.526L145.272 153.208Z" fill="white"/>
<path d="M147.861 152.891L147.941 152.864C148.166 152.785 148.333 152.7 148.44 152.611C148.543 152.528 148.616 152.424 148.654 152.304C148.696 152.177 148.717 152.019 148.717 151.834C148.717 151.784 148.715 151.728 148.713 151.666L148.712 151.587H149.056L149.059 151.66C149.075 152.102 149.007 152.434 148.858 152.648C148.708 152.862 148.442 153.036 148.068 153.164L148.004 153.187L147.861 152.891ZM149.207 152.078L149.264 152.012C149.414 151.841 149.517 151.662 149.569 151.478H147.83V151.142H149.976L149.962 151.231C149.929 151.436 149.882 151.614 149.819 151.754C149.757 151.897 149.661 152.05 149.53 152.21L149.487 152.264L149.207 152.078Z" fill="white"/>
<path d="M150.496 153.111L150.592 153.086C151.195 152.933 151.658 152.728 151.97 152.476C152.282 152.224 152.551 151.845 152.772 151.344L152.805 151.271L153.127 151.434L153.095 151.501C152.852 152.033 152.572 152.443 152.266 152.719C151.958 152.998 151.442 153.234 150.731 153.425L150.672 153.441L150.496 153.111ZM151.402 151.718C151.188 151.513 150.926 151.315 150.625 151.125L150.547 151.076L150.786 150.81L150.842 150.845C151.124 151.028 151.397 151.228 151.649 151.441L151.71 151.492L151.461 151.772L151.402 151.718Z" fill="white"/>
</g>
<defs>
<clipPath id="clip0_126:2827">
<rect width="57.5072" height="57.5072" fill="white" transform="translate(69.1875 61.9131)"/>
</clipPath>
<clipPath id="clip1_126:2827">
<rect width="32.3478" height="32.3478" fill="white" transform="translate(0 52.9275)"/>
</clipPath>
<clipPath id="clip2_126:2827">
<rect width="24.2609" height="24.2609" fill="white" transform="translate(22.4629 134.696)"/>
</clipPath>
<clipPath id="clip3_126:2827">
<rect width="37.7391" height="37.7391" fill="white" transform="translate(123.102 141.884)"/>
</clipPath>
</defs>
</svg>
